<svg width="1920" height="1080" viewBox="0 0 1920 1080" fill="none" xmlns="http://www.w3.org/2000/svg">
<rect width="1920" height="1080" fill="#FFF2DA"/>
<path d="M120.035 832.424L42 922M78.1564 880.496L79.5007 879.251C80.8048 877.952 81.9861 876.497 83.0239 874.909C91.0889 862.565 88.9097 845.054 78.1564 835.796L76.8122 837.041C75.508 838.34 74.3267 839.795 73.289 841.383C65.224 853.727 67.4032 871.238 78.1564 880.496ZM78.1564 880.496L79.2413 882.039C80.3725 883.536 81.6404 884.892 83.0241 886.084C93.7773 895.341 109.032 892.839 117.097 880.496L116.012 878.953C114.881 877.456 113.613 876.1 112.229 874.908C101.476 865.651 86.2212 868.153 78.1564 880.496ZM97.6267 858.146L98.971 856.901C100.275 855.602 101.456 854.147 102.494 852.559C110.559 840.215 108.38 822.704 97.6267 813.446L96.2824 814.691C94.9783 815.99 93.797 817.445 92.7592 819.033C84.6942 831.377 86.8735 848.888 97.6267 858.146ZM97.6267 858.146L98.7116 859.689C99.8428 861.186 101.111 862.542 102.494 863.734C113.248 872.991 128.502 870.489 136.567 858.146L135.482 856.603C134.351 855.106 133.083 853.75 131.7 852.558C120.946 843.301 105.691 845.803 97.6267 858.146ZM117.097 835.796L118.441 834.551C119.745 833.252 120.927 831.797 121.964 830.209C130.029 817.865 127.85 800.354 117.097 791.096L115.753 792.341C114.449 793.64 113.267 795.095 112.229 796.683C104.164 809.027 106.344 826.538 117.097 835.796ZM117.097 835.796L118.182 837.339C119.313 838.836 120.581 840.192 121.965 841.384C132.718 850.641 147.973 848.139 156.037 835.796L154.953 834.253C153.821 832.756 152.554 831.4 151.17 830.208C140.417 820.951 125.162 823.453 117.097 835.796ZM58.2252 903.375L59.5695 902.13C60.8736 900.831 62.0549 899.376 63.0927 897.788C71.1577 885.444 68.9784 867.933 58.2252 858.675L56.8809 859.92C55.5768 861.219 54.3955 862.674 53.3577 864.262C45.2927 876.606 47.472 894.117 58.2252 903.375ZM58.2252 903.375L59.3101 904.918C60.4413 906.415 61.7092 907.771 63.0929 908.963C73.846 918.22 89.101 915.718 97.1657 903.375L96.0808 901.832C94.9496 900.335 93.6818 898.979 92.298 897.787C81.5449 888.53 66.29 891.032 58.2252 903.375ZM136.101 821.888C134.389 822.169 132.657 822.239 130.935 822.099L129.217 821.888C127.316 806.614 136.562 792.463 149.869 790.281C152.152 789.906 154.469 789.906 156.752 790.281C158.653 805.555 149.407 819.706 136.101 821.888Z" stroke="#EACE97" stroke-width="5"/>
<path d="M298.035 951.424L220 1041M256.156 999.496L257.501 998.251C258.805 996.952 259.986 995.497 261.024 993.909C269.089 981.565 266.91 964.054 256.156 954.796L254.812 956.041C253.508 957.34 252.327 958.795 251.289 960.383C243.224 972.727 245.403 990.238 256.156 999.496ZM256.156 999.496L257.241 1001.04C258.373 1002.54 259.64 1003.89 261.024 1005.08C271.777 1014.34 287.032 1011.84 295.097 999.496L294.012 997.953C292.881 996.456 291.613 995.1 290.229 993.908C279.476 984.651 264.221 987.153 256.156 999.496ZM275.627 977.146L276.971 975.901C278.275 974.602 279.456 973.147 280.494 971.559C288.559 959.215 286.38 941.704 275.627 932.446L274.282 933.691C272.978 934.99 271.797 936.445 270.759 938.033C262.694 950.377 264.873 967.888 275.627 977.146ZM275.627 977.146L276.712 978.689C277.843 980.186 279.111 981.542 280.494 982.734C291.248 991.991 306.502 989.489 314.567 977.146L313.482 975.603C312.351 974.106 311.083 972.75 309.7 971.558C298.946 962.301 283.691 964.803 275.627 977.146ZM295.097 954.796L296.441 953.551C297.745 952.252 298.927 950.797 299.964 949.209C308.029 936.865 305.85 919.354 295.097 910.096L293.753 911.341C292.449 912.64 291.267 914.095 290.229 915.683C282.164 928.027 284.344 945.538 295.097 954.796ZM295.097 954.796L296.182 956.339C297.313 957.836 298.581 959.192 299.965 960.384C310.718 969.641 325.973 967.139 334.037 954.796L332.953 953.253C331.821 951.756 330.554 950.4 329.17 949.208C318.417 939.951 303.162 942.453 295.097 954.796ZM236.225 1022.37L237.569 1021.13C238.874 1019.83 240.055 1018.38 241.093 1016.79C249.158 1004.44 246.978 986.933 236.225 977.675L234.881 978.92C233.577 980.219 232.395 981.674 231.358 983.262C223.293 995.606 225.472 1013.12 236.225 1022.37ZM236.225 1022.37L237.31 1023.92C238.441 1025.42 239.709 1026.77 241.093 1027.96C251.846 1037.22 267.101 1034.72 275.166 1022.37L274.081 1020.83C272.95 1019.33 271.682 1017.98 270.298 1016.79C259.545 1007.53 244.29 1010.03 236.225 1022.37ZM314.101 940.888C312.389 941.169 310.657 941.239 308.935 941.099L307.217 940.888C305.316 925.614 314.562 911.463 327.869 909.281C330.152 908.906 332.469 908.906 334.752 909.281C336.653 924.555 327.407 938.706 314.101 940.888Z" stroke="#EACE97" stroke-width="5"/>
<path d="M265.035 294.424L187 384M223.156 342.496L224.501 341.251C225.805 339.952 226.986 338.497 228.024 336.909C236.089 324.565 233.91 307.054 223.156 297.796L221.812 299.041C220.508 300.34 219.327 301.795 218.289 303.383C210.224 315.727 212.403 333.238 223.156 342.496ZM223.156 342.496L224.241 344.039C225.373 345.536 226.64 346.892 228.024 348.084C238.777 357.341 254.032 354.839 262.097 342.496L261.012 340.953C259.881 339.456 258.613 338.1 257.229 336.908C246.476 327.651 231.221 330.153 223.156 342.496ZM242.627 320.146L243.971 318.901C245.275 317.602 246.456 316.147 247.494 314.559C255.559 302.215 253.38 284.704 242.627 275.446L241.282 276.691C239.978 277.99 238.797 279.445 237.759 281.033C229.694 293.377 231.873 310.888 242.627 320.146ZM242.627 320.146L243.712 321.689C244.843 323.186 246.111 324.542 247.494 325.734C258.248 334.991 273.502 332.489 281.567 320.146L280.482 318.603C279.351 317.106 278.083 315.75 276.7 314.558C265.946 305.301 250.691 307.803 242.627 320.146ZM262.097 297.796L263.441 296.551C264.745 295.252 265.927 293.797 266.964 292.209C275.029 279.865 272.85 262.354 262.097 253.096L260.753 254.341C259.449 255.64 258.267 257.095 257.229 258.683C249.164 271.027 251.344 288.538 262.097 297.796ZM262.097 297.796L263.182 299.339C264.313 300.836 265.581 302.192 266.965 303.384C277.718 312.641 292.973 310.139 301.037 297.796L299.953 296.253C298.821 294.756 297.554 293.4 296.17 292.208C285.417 282.951 270.162 285.453 262.097 297.796ZM203.225 365.375L204.569 364.13C205.874 362.831 207.055 361.376 208.093 359.788C216.158 347.444 213.978 329.933 203.225 320.675L201.881 321.92C200.577 323.219 199.395 324.674 198.358 326.262C190.293 338.606 192.472 356.117 203.225 365.375ZM203.225 365.375L204.31 366.918C205.441 368.415 206.709 369.771 208.093 370.963C218.846 380.22 234.101 377.718 242.166 365.375L241.081 363.832C239.95 362.335 238.682 360.979 237.298 359.787C226.545 350.53 211.29 353.032 203.225 365.375ZM281.101 283.888C279.389 284.169 277.657 284.239 275.935 284.099L274.217 283.888C272.316 268.614 281.562 254.463 294.869 252.281C297.152 251.906 299.469 251.906 301.752 252.281C303.653 267.555 294.407 281.706 281.101 283.888Z" stroke="#EACE97" stroke-width="5"/>
<path d="M541.035 503.424L463 593M499.156 551.496L500.501 550.251C501.805 548.952 502.986 547.497 504.024 545.909C512.089 533.565 509.91 516.054 499.156 506.796L497.812 508.041C496.508 509.34 495.327 510.795 494.289 512.383C486.224 524.727 488.403 542.238 499.156 551.496ZM499.156 551.496L500.241 553.039C501.373 554.536 502.64 555.892 504.024 557.084C514.777 566.341 530.032 563.839 538.097 551.496L537.012 549.953C535.881 548.456 534.613 547.1 533.229 545.908C522.476 536.651 507.221 539.153 499.156 551.496ZM518.627 529.146L519.971 527.901C521.275 526.602 522.456 525.147 523.494 523.559C531.559 511.215 529.38 493.704 518.627 484.446L517.282 485.691C515.978 486.99 514.797 488.445 513.759 490.033C505.694 502.377 507.873 519.888 518.627 529.146ZM518.627 529.146L519.712 530.689C520.843 532.186 522.111 533.542 523.494 534.734C534.248 543.991 549.502 541.489 557.567 529.146L556.482 527.603C555.351 526.106 554.083 524.75 552.7 523.558C541.946 514.301 526.691 516.803 518.627 529.146ZM538.097 506.796L539.441 505.551C540.745 504.252 541.927 502.797 542.964 501.209C551.029 488.865 548.85 471.354 538.097 462.096L536.753 463.341C535.449 464.64 534.267 466.095 533.229 467.683C525.164 480.027 527.344 497.538 538.097 506.796ZM538.097 506.796L539.182 508.339C540.313 509.836 541.581 511.192 542.965 512.384C553.718 521.641 568.973 519.139 577.037 506.796L575.953 505.253C574.821 503.756 573.554 502.4 572.17 501.208C561.417 491.951 546.162 494.453 538.097 506.796ZM479.225 574.375L480.569 573.13C481.874 571.831 483.055 570.376 484.093 568.788C492.158 556.444 489.978 538.933 479.225 529.675L477.881 530.92C476.577 532.219 475.395 533.674 474.358 535.262C466.293 547.606 468.472 565.117 479.225 574.375ZM479.225 574.375L480.31 575.918C481.441 577.415 482.709 578.771 484.093 579.963C494.846 589.22 510.101 586.718 518.166 574.375L517.081 572.832C515.95 571.335 514.682 569.979 513.298 568.787C502.545 559.53 487.29 562.032 479.225 574.375ZM557.101 492.888C555.389 493.169 553.657 493.239 551.935 493.099L550.217 492.888C548.316 477.614 557.562 463.463 570.869 461.281C573.152 460.906 575.469 460.906 577.752 461.281C579.653 476.555 570.407 490.706 557.101 492.888Z" stroke="#EACE97" stroke-width="5"/>
<path d="M91.0347 75.4236L13 165M49.1564 123.496L50.5007 122.251C51.8048 120.952 52.9861 119.497 54.0239 117.909C62.0889 105.565 59.9097 88.0538 49.1564 78.796L47.8122 80.0413C46.508 81.3398 45.3267 82.7951 44.289 84.3834C36.224 96.7269 38.4032 114.238 49.1564 123.496ZM49.1564 123.496L50.2413 125.039C51.3725 126.536 52.6404 127.892 54.0241 129.084C64.7773 138.341 80.0322 135.839 88.0969 123.496L87.0121 121.953C85.8809 120.456 84.613 119.1 83.2293 117.908C72.4761 108.651 57.2212 111.153 49.1564 123.496ZM68.6267 101.146L69.971 99.9007C71.2751 98.6023 72.4564 97.147 73.4942 95.5587C81.5592 83.2151 79.3799 65.7038 68.6267 56.446L67.2824 57.6913C65.9783 58.9898 64.797 60.445 63.7592 62.0334C55.6942 74.3769 57.8735 91.8883 68.6267 101.146ZM68.6267 101.146L69.7116 102.689C70.8428 104.186 72.1106 105.542 73.4944 106.734C84.2475 115.991 99.5024 113.489 107.567 101.146L106.482 99.6029C105.351 98.1058 104.083 96.7497 102.7 95.5584C91.9464 86.3009 76.6915 88.8026 68.6267 101.146ZM88.0969 78.796L89.4412 77.5507C90.7453 76.2523 91.9267 74.797 92.9644 73.2087C101.029 60.8651 98.8502 43.3538 88.0969 34.096L86.7527 35.3413C85.4485 36.6397 84.2672 38.095 83.2295 39.6834C75.1645 52.0269 77.3437 69.5383 88.0969 78.796ZM88.0969 78.796L89.1818 80.3392C90.313 81.8362 91.5809 83.1923 92.9646 84.3836C103.718 93.6411 118.973 91.1395 127.037 78.796L125.953 77.2528C124.821 75.7558 123.554 74.3997 122.17 73.2084C111.417 63.9509 96.1617 66.4526 88.0969 78.796ZM29.2252 146.375L30.5695 145.13C31.8736 143.831 33.0549 142.376 34.0927 140.788C42.1577 128.444 39.9784 110.933 29.2252 101.675L27.8809 102.92C26.5768 104.219 25.3955 105.674 24.3577 107.262C16.2927 119.606 18.472 137.117 29.2252 146.375ZM29.2252 146.375L30.3101 147.918C31.4413 149.415 32.7092 150.771 34.0929 151.963C44.846 161.22 60.101 158.718 68.1657 146.375L67.0808 144.832C65.9496 143.335 64.6818 141.979 63.298 140.787C52.5449 131.53 37.29 134.032 29.2252 146.375ZM107.101 64.8885C105.389 65.1693 103.657 65.2395 101.935 65.0991L100.217 64.8882C98.3163 49.6139 107.562 35.4628 120.869 33.2808C123.152 32.9064 125.469 32.9064 127.752 33.2808C129.653 48.5554 120.407 62.7065 107.101 64.8885Z" stroke="#EACE97" stroke-width="5"/>
<path d="M89.1532 493.24L90.0704 487.189L91.0227 481.425L92.0099 475.947L93.032 470.756L94.089 465.852L95.181 461.235C99.0642 445.575 103.589 435.183 108.757 430.059C120.937 417.98 140.685 417.98 152.865 430.059M89.1532 493.24L95.2549 492.33L101.068 491.386L106.591 490.407L111.826 489.393L116.771 488.345L121.427 487.262C137.218 483.411 147.698 478.924 152.865 473.8C165.045 461.721 165.045 442.138 152.865 430.059M89.1532 493.24C113.658 485.14 131.628 475.42 143.063 464.079C160.216 447.069 160.216 437.349 152.865 430.059M89.1532 493.24C97.3213 468.939 107.123 451.119 118.559 439.779C135.712 422.769 145.514 422.769 152.865 430.059M152 430.917L78.6667 503.639M72 495.67L81.8018 500.53L86.7027 510.25L59.7477 536.98C55.6877 541.007 49.1051 541.007 45.045 536.98C40.985 532.954 40.985 526.426 45.045 522.4L72 495.67Z" stroke="#DABCAC" stroke-width="5" stroke-linejoin="round"/>
<path d="M319.153 683.24L320.07 677.189L321.023 671.425L322.01 665.947L323.032 660.756L324.089 655.852L325.181 651.235C329.064 635.575 333.589 625.183 338.757 620.059C350.937 607.98 370.685 607.98 382.865 620.059M319.153 683.24L325.255 682.33L331.068 681.386L336.591 680.407L341.826 679.393L346.771 678.345L351.427 677.262C367.218 673.411 377.698 668.924 382.865 663.8C395.045 651.721 395.045 632.138 382.865 620.059M319.153 683.24C343.658 675.14 361.628 665.42 373.063 654.079C390.216 637.069 390.216 627.349 382.865 620.059M319.153 683.24C327.321 658.939 337.123 641.119 348.559 629.779C365.712 612.769 375.514 612.769 382.865 620.059M382 620.917L308.667 693.639M302 685.67L311.802 690.53L316.703 700.25L289.748 726.98C285.688 731.007 279.105 731.007 275.045 726.98C270.985 722.954 270.985 716.426 275.045 712.4L302 685.67Z" stroke="#DABCAC" stroke-width="5" stroke-linejoin="round"/>
<path d="M505.153 862.24L506.07 856.189L507.023 850.425L508.01 844.947L509.032 839.756L510.089 834.852L511.181 830.235C515.064 814.575 519.589 804.183 524.757 799.059C536.937 786.98 556.685 786.98 568.865 799.059M505.153 862.24L511.255 861.33L517.068 860.386L522.591 859.407L527.826 858.393L532.771 857.345L537.427 856.262C553.218 852.411 563.698 847.924 568.865 842.8C581.045 830.721 581.045 811.138 568.865 799.059M505.153 862.24C529.658 854.14 547.628 844.42 559.063 833.079C576.216 816.069 576.216 806.349 568.865 799.059M505.153 862.24C513.321 837.939 523.123 820.119 534.559 808.779C551.712 791.769 561.514 791.769 568.865 799.059M568 799.917L494.667 872.639M488 864.67L497.802 869.53L502.703 879.25L475.748 905.98C471.688 910.007 465.105 910.007 461.045 905.98C456.985 901.954 456.985 895.426 461.045 891.4L488 864.67Z" stroke="#DABCAC" stroke-width="5" stroke-linejoin="round"/>
<path d="M1437.03 797.424L1359 887M1395.16 845.496L1396.5 844.251C1397.8 842.952 1398.99 841.497 1400.02 839.909C1408.09 827.565 1405.91 810.054 1395.16 800.796L1393.81 802.041C1392.51 803.34 1391.33 804.795 1390.29 806.383C1382.22 818.727 1384.4 836.238 1395.16 845.496ZM1395.16 845.496L1396.24 847.039C1397.37 848.536 1398.64 849.892 1400.02 851.084C1410.78 860.341 1426.03 857.839 1434.1 845.496L1433.01 843.953C1431.88 842.456 1430.61 841.1 1429.23 839.908C1418.48 830.651 1403.22 833.153 1395.16 845.496ZM1414.63 823.146L1415.97 821.901C1417.28 820.602 1418.46 819.147 1419.49 817.559C1427.56 805.215 1425.38 787.704 1414.63 778.446L1413.28 779.691C1411.98 780.99 1410.8 782.445 1409.76 784.033C1401.69 796.377 1403.87 813.888 1414.63 823.146ZM1414.63 823.146L1415.71 824.689C1416.84 826.186 1418.11 827.542 1419.49 828.734C1430.25 837.991 1445.5 835.489 1453.57 823.146L1452.48 821.603C1451.35 820.106 1450.08 818.75 1448.7 817.558C1437.95 808.301 1422.69 810.803 1414.63 823.146ZM1434.1 800.796L1435.44 799.551C1436.75 798.252 1437.93 796.797 1438.96 795.209C1447.03 782.865 1444.85 765.354 1434.1 756.096L1432.75 757.341C1431.45 758.64 1430.27 760.095 1429.23 761.683C1421.16 774.027 1423.34 791.538 1434.1 800.796ZM1434.1 800.796L1435.18 802.339C1436.31 803.836 1437.58 805.192 1438.96 806.384C1449.72 815.641 1464.97 813.139 1473.04 800.796L1471.95 799.253C1470.82 797.756 1469.55 796.4 1468.17 795.208C1457.42 785.951 1442.16 788.453 1434.1 800.796ZM1375.23 868.375L1376.57 867.13C1377.87 865.831 1379.05 864.376 1380.09 862.788C1388.16 850.444 1385.98 832.933 1375.23 823.675L1373.88 824.92C1372.58 826.219 1371.4 827.674 1370.36 829.262C1362.29 841.606 1364.47 859.117 1375.23 868.375ZM1375.23 868.375L1376.31 869.918C1377.44 871.415 1378.71 872.771 1380.09 873.963C1390.85 883.22 1406.1 880.718 1414.17 868.375L1413.08 866.832C1411.95 865.335 1410.68 863.979 1409.3 862.787C1398.54 853.53 1383.29 856.032 1375.23 868.375ZM1453.1 786.888C1451.39 787.169 1449.66 787.239 1447.93 787.099L1446.22 786.888C1444.32 771.614 1453.56 757.463 1466.87 755.281C1469.15 754.906 1471.47 754.906 1473.75 755.281C1475.65 770.555 1466.41 784.706 1453.1 786.888Z" stroke="#EACE97" stroke-width="5"/>
<path d="M1847.03 857.424L1769 947M1805.16 905.496L1806.5 904.251C1807.8 902.952 1808.99 901.497 1810.02 899.909C1818.09 887.565 1815.91 870.054 1805.16 860.796L1803.81 862.041C1802.51 863.34 1801.33 864.795 1800.29 866.383C1792.22 878.727 1794.4 896.238 1805.16 905.496ZM1805.16 905.496L1806.24 907.039C1807.37 908.536 1808.64 909.892 1810.02 911.084C1820.78 920.341 1836.03 917.839 1844.1 905.496L1843.01 903.953C1841.88 902.456 1840.61 901.1 1839.23 899.908C1828.48 890.651 1813.22 893.153 1805.16 905.496ZM1824.63 883.146L1825.97 881.901C1827.28 880.602 1828.46 879.147 1829.49 877.559C1837.56 865.215 1835.38 847.704 1824.63 838.446L1823.28 839.691C1821.98 840.99 1820.8 842.445 1819.76 844.033C1811.69 856.377 1813.87 873.888 1824.63 883.146ZM1824.63 883.146L1825.71 884.689C1826.84 886.186 1828.11 887.542 1829.49 888.734C1840.25 897.991 1855.5 895.489 1863.57 883.146L1862.48 881.603C1861.35 880.106 1860.08 878.75 1858.7 877.558C1847.95 868.301 1832.69 870.803 1824.63 883.146ZM1844.1 860.796L1845.44 859.551C1846.75 858.252 1847.93 856.797 1848.96 855.209C1857.03 842.865 1854.85 825.354 1844.1 816.096L1842.75 817.341C1841.45 818.64 1840.27 820.095 1839.23 821.683C1831.16 834.027 1833.34 851.538 1844.1 860.796ZM1844.1 860.796L1845.18 862.339C1846.31 863.836 1847.58 865.192 1848.96 866.384C1859.72 875.641 1874.97 873.139 1883.04 860.796L1881.95 859.253C1880.82 857.756 1879.55 856.4 1878.17 855.208C1867.42 845.951 1852.16 848.453 1844.1 860.796ZM1785.23 928.375L1786.57 927.13C1787.87 925.831 1789.05 924.376 1790.09 922.788C1798.16 910.444 1795.98 892.933 1785.23 883.675L1783.88 884.92C1782.58 886.219 1781.4 887.674 1780.36 889.262C1772.29 901.606 1774.47 919.117 1785.23 928.375ZM1785.23 928.375L1786.31 929.918C1787.44 931.415 1788.71 932.771 1790.09 933.963C1800.85 943.22 1816.1 940.718 1824.17 928.375L1823.08 926.832C1821.95 925.335 1820.68 923.979 1819.3 922.787C1808.54 913.53 1793.29 916.032 1785.23 928.375ZM1863.1 846.888C1861.39 847.169 1859.66 847.239 1857.93 847.099L1856.22 846.888C1854.32 831.614 1863.56 817.463 1876.87 815.281C1879.15 814.906 1881.47 814.906 1883.75 815.281C1885.65 830.555 1876.41 844.706 1863.1 846.888Z" stroke="#EACE97" stroke-width="5"/>
<path d="M1694.03 294.424L1616 384M1652.16 342.496L1653.5 341.251C1654.8 339.952 1655.99 338.497 1657.02 336.909C1665.09 324.565 1662.91 307.054 1652.16 297.796L1650.81 299.041C1649.51 300.34 1648.33 301.795 1647.29 303.383C1639.22 315.727 1641.4 333.238 1652.16 342.496ZM1652.16 342.496L1653.24 344.039C1654.37 345.536 1655.64 346.892 1657.02 348.084C1667.78 357.341 1683.03 354.839 1691.1 342.496L1690.01 340.953C1688.88 339.456 1687.61 338.1 1686.23 336.908C1675.48 327.651 1660.22 330.153 1652.16 342.496ZM1671.63 320.146L1672.97 318.901C1674.28 317.602 1675.46 316.147 1676.49 314.559C1684.56 302.215 1682.38 284.704 1671.63 275.446L1670.28 276.691C1668.98 277.99 1667.8 279.445 1666.76 281.033C1658.69 293.377 1660.87 310.888 1671.63 320.146ZM1671.63 320.146L1672.71 321.689C1673.84 323.186 1675.11 324.542 1676.49 325.734C1687.25 334.991 1702.5 332.489 1710.57 320.146L1709.48 318.603C1708.35 317.106 1707.08 315.75 1705.7 314.558C1694.95 305.301 1679.69 307.803 1671.63 320.146ZM1691.1 297.796L1692.44 296.551C1693.75 295.252 1694.93 293.797 1695.96 292.209C1704.03 279.865 1701.85 262.354 1691.1 253.096L1689.75 254.341C1688.45 255.64 1687.27 257.095 1686.23 258.683C1678.16 271.027 1680.34 288.538 1691.1 297.796ZM1691.1 297.796L1692.18 299.339C1693.31 300.836 1694.58 302.192 1695.96 303.384C1706.72 312.641 1721.97 310.139 1730.04 297.796L1728.95 296.253C1727.82 294.756 1726.55 293.4 1725.17 292.208C1714.42 282.951 1699.16 285.453 1691.1 297.796ZM1632.23 365.375L1633.57 364.13C1634.87 362.831 1636.05 361.376 1637.09 359.788C1645.16 347.444 1642.98 329.933 1632.23 320.675L1630.88 321.92C1629.58 323.219 1628.4 324.674 1627.36 326.262C1619.29 338.606 1621.47 356.117 1632.23 365.375ZM1632.23 365.375L1633.31 366.918C1634.44 368.415 1635.71 369.771 1637.09 370.963C1647.85 380.22 1663.1 377.718 1671.17 365.375L1670.08 363.832C1668.95 362.335 1667.68 360.979 1666.3 359.787C1655.54 350.53 1640.29 353.032 1632.23 365.375ZM1710.1 283.888C1708.39 284.169 1706.66 284.239 1704.93 284.099L1703.22 283.888C1701.32 268.614 1710.56 254.463 1723.87 252.281C1726.15 251.906 1728.47 251.906 1730.75 252.281C1732.65 267.555 1723.41 281.706 1710.1 283.888Z" stroke="#EACE97" stroke-width="5"/>
<path d="M1850.03 462.424L1772 552M1808.16 510.496L1809.5 509.251C1810.8 507.952 1811.99 506.497 1813.02 504.909C1821.09 492.565 1818.91 475.054 1808.16 465.796L1806.81 467.041C1805.51 468.34 1804.33 469.795 1803.29 471.383C1795.22 483.727 1797.4 501.238 1808.16 510.496ZM1808.16 510.496L1809.24 512.039C1810.37 513.536 1811.64 514.892 1813.02 516.084C1823.78 525.341 1839.03 522.839 1847.1 510.496L1846.01 508.953C1844.88 507.456 1843.61 506.1 1842.23 504.908C1831.48 495.651 1816.22 498.153 1808.16 510.496ZM1827.63 488.146L1828.97 486.901C1830.28 485.602 1831.46 484.147 1832.49 482.559C1840.56 470.215 1838.38 452.704 1827.63 443.446L1826.28 444.691C1824.98 445.99 1823.8 447.445 1822.76 449.033C1814.69 461.377 1816.87 478.888 1827.63 488.146ZM1827.63 488.146L1828.71 489.689C1829.84 491.186 1831.11 492.542 1832.49 493.734C1843.25 502.991 1858.5 500.489 1866.57 488.146L1865.48 486.603C1864.35 485.106 1863.08 483.75 1861.7 482.558C1850.95 473.301 1835.69 475.803 1827.63 488.146ZM1847.1 465.796L1848.44 464.551C1849.75 463.252 1850.93 461.797 1851.96 460.209C1860.03 447.865 1857.85 430.354 1847.1 421.096L1845.75 422.341C1844.45 423.64 1843.27 425.095 1842.23 426.683C1834.16 439.027 1836.34 456.538 1847.1 465.796ZM1847.1 465.796L1848.18 467.339C1849.31 468.836 1850.58 470.192 1851.96 471.384C1862.72 480.641 1877.97 478.139 1886.04 465.796L1884.95 464.253C1883.82 462.756 1882.55 461.4 1881.17 460.208C1870.42 450.951 1855.16 453.453 1847.1 465.796ZM1788.23 533.375L1789.57 532.13C1790.87 530.831 1792.05 529.376 1793.09 527.788C1801.16 515.444 1798.98 497.933 1788.23 488.675L1786.88 489.92C1785.58 491.219 1784.4 492.674 1783.36 494.262C1775.29 506.606 1777.47 524.117 1788.23 533.375ZM1788.23 533.375L1789.31 534.918C1790.44 536.415 1791.71 537.771 1793.09 538.963C1803.85 548.22 1819.1 545.718 1827.17 533.375L1826.08 531.832C1824.95 530.335 1823.68 528.979 1822.3 527.787C1811.54 518.53 1796.29 521.032 1788.23 533.375ZM1866.1 451.888C1864.39 452.169 1862.66 452.239 1860.93 452.099L1859.22 451.888C1857.32 436.614 1866.56 422.463 1879.87 420.281C1882.15 419.906 1884.47 419.906 1886.75 420.281C1888.65 435.555 1879.41 449.706 1866.1 451.888Z" stroke="#EACE97" stroke-width="5"/>
<path d="M1520.03 75.4236L1442 165M1478.16 123.496L1479.5 122.251C1480.8 120.952 1481.99 119.497 1483.02 117.909C1491.09 105.565 1488.91 88.0538 1478.16 78.796L1476.81 80.0413C1475.51 81.3398 1474.33 82.7951 1473.29 84.3834C1465.22 96.7269 1467.4 114.238 1478.16 123.496ZM1478.16 123.496L1479.24 125.039C1480.37 126.536 1481.64 127.892 1483.02 129.084C1493.78 138.341 1509.03 135.839 1517.1 123.496L1516.01 121.953C1514.88 120.456 1513.61 119.1 1512.23 117.908C1501.48 108.651 1486.22 111.153 1478.16 123.496ZM1497.63 101.146L1498.97 99.9007C1500.28 98.6023 1501.46 97.147 1502.49 95.5587C1510.56 83.2151 1508.38 65.7038 1497.63 56.446L1496.28 57.6913C1494.98 58.9898 1493.8 60.445 1492.76 62.0334C1484.69 74.3769 1486.87 91.8883 1497.63 101.146ZM1497.63 101.146L1498.71 102.689C1499.84 104.186 1501.11 105.542 1502.49 106.734C1513.25 115.991 1528.5 113.489 1536.57 101.146L1535.48 99.6029C1534.35 98.1058 1533.08 96.7497 1531.7 95.5584C1520.95 86.3009 1505.69 88.8026 1497.63 101.146ZM1517.1 78.796L1518.44 77.5507C1519.75 76.2523 1520.93 74.797 1521.96 73.2087C1530.03 60.8651 1527.85 43.3538 1517.1 34.096L1515.75 35.3413C1514.45 36.6397 1513.27 38.095 1512.23 39.6834C1504.16 52.0269 1506.34 69.5383 1517.1 78.796ZM1517.1 78.796L1518.18 80.3392C1519.31 81.8362 1520.58 83.1923 1521.96 84.3836C1532.72 93.6411 1547.97 91.1395 1556.04 78.796L1554.95 77.2528C1553.82 75.7558 1552.55 74.3997 1551.17 73.2084C1540.42 63.9509 1525.16 66.4526 1517.1 78.796ZM1458.23 146.375L1459.57 145.13C1460.87 143.831 1462.05 142.376 1463.09 140.788C1471.16 128.444 1468.98 110.933 1458.23 101.675L1456.88 102.92C1455.58 104.219 1454.4 105.674 1453.36 107.262C1445.29 119.606 1447.47 137.117 1458.23 146.375ZM1458.23 146.375L1459.31 147.918C1460.44 149.415 1461.71 150.771 1463.09 151.963C1473.85 161.22 1489.1 158.718 1497.17 146.375L1496.08 144.832C1494.95 143.335 1493.68 141.979 1492.3 140.787C1481.54 131.53 1466.29 134.032 1458.23 146.375ZM1536.1 64.8885C1534.39 65.1693 1532.66 65.2395 1530.93 65.0991L1529.22 64.8882C1527.32 49.6139 1536.56 35.4628 1549.87 33.2808C1552.15 32.9064 1554.47 32.9064 1556.75 33.2808C1558.65 48.5554 1549.41 62.7065 1536.1 64.8885Z" stroke="#EACE97" stroke-width="5"/>
<path d="M1484.15 498.24L1485.07 492.189L1486.02 486.425L1487.01 480.947L1488.03 475.756L1489.09 470.852L1490.18 466.235C1494.06 450.575 1498.59 440.183 1503.76 435.059C1515.94 422.98 1535.68 422.98 1547.86 435.059M1484.15 498.24L1490.25 497.33L1496.07 496.386L1501.59 495.407L1506.83 494.393L1511.77 493.345L1516.43 492.262C1532.22 488.411 1542.7 483.924 1547.86 478.8C1560.05 466.721 1560.05 447.138 1547.86 435.059M1484.15 498.24C1508.66 490.14 1526.63 480.42 1538.06 469.079C1555.22 452.069 1555.22 442.349 1547.86 435.059M1484.15 498.24C1492.32 473.939 1502.12 456.119 1513.56 444.779C1530.71 427.769 1540.51 427.769 1547.86 435.059M1547 435.917L1473.67 508.639M1467 500.67L1476.8 505.53L1481.7 515.25L1454.75 541.98C1450.69 546.007 1444.11 546.007 1440.05 541.98C1435.98 537.954 1435.98 531.426 1440.05 527.4L1467 500.67Z" stroke="#DFC3B2" stroke-width="5" stroke-linejoin="round"/>
<path d="M551.153 317.24L552.07 311.189L553.023 305.425L554.01 299.947L555.032 294.756L556.089 289.852L557.181 285.235C561.064 269.575 565.589 259.183 570.757 254.059C582.937 241.98 602.685 241.98 614.865 254.059M551.153 317.24L557.255 316.33L563.068 315.386L568.591 314.407L573.826 313.393L578.771 312.345L583.427 311.262C599.218 307.411 609.698 302.924 614.865 297.8C627.045 285.721 627.045 266.138 614.865 254.059M551.153 317.24C575.658 309.14 593.628 299.42 605.063 288.079C622.216 271.069 622.216 261.349 614.865 254.059M551.153 317.24C559.321 292.939 569.123 275.119 580.559 263.779C597.712 246.769 607.514 246.769 614.865 254.059M614 254.917L540.667 327.639M534 319.67L543.802 324.53L548.703 334.25L521.748 360.98C517.688 365.007 511.105 365.007 507.045 360.98C502.985 356.954 502.985 350.426 507.045 346.4L534 319.67Z" stroke="#DABCAC" stroke-width="5" stroke-linejoin="round"/>
<path d="M319.153 102.24L320.07 96.1889L321.023 90.4247L322.01 84.9472L323.032 79.7564L324.089 74.8522L325.181 70.2347C329.064 54.5751 333.589 44.1832 338.757 39.059C350.937 26.9803 370.685 26.9803 382.865 39.059M319.153 102.24L325.255 101.33L331.068 100.386L336.591 99.4069L341.826 98.3933L346.771 97.345L351.427 96.2621C367.218 92.4113 377.698 87.9238 382.865 82.7995C395.045 70.7209 395.045 51.1376 382.865 39.059M319.153 102.24C343.658 94.1397 361.628 84.4196 373.063 73.0794C390.216 56.0692 390.216 46.3491 382.865 39.059M319.153 102.24C327.321 77.9395 337.123 60.1192 348.559 48.7791C365.712 31.7689 375.514 31.7689 382.865 39.059M382 39.9167L308.667 112.639M302 104.67L311.802 109.53L316.703 119.25L289.748 145.98C285.688 150.007 279.105 150.007 275.045 145.98C270.985 141.954 270.985 135.426 275.045 131.4L302 104.67Z" stroke="#DABCAC" stroke-width="5" stroke-linejoin="round"/>
<path d="M1319.15 274.24L1320.07 268.189L1321.02 262.425L1322.01 256.947L1323.03 251.756L1324.09 246.852L1325.18 242.235C1329.06 226.575 1333.59 216.183 1338.76 211.059C1350.94 198.98 1370.68 198.98 1382.86 211.059M1319.15 274.24L1325.25 273.33L1331.07 272.386L1336.59 271.407L1341.83 270.393L1346.77 269.345L1351.43 268.262C1367.22 264.411 1377.7 259.924 1382.86 254.8C1395.05 242.721 1395.05 223.138 1382.86 211.059M1319.15 274.24C1343.66 266.14 1361.63 256.42 1373.06 245.079C1390.22 228.069 1390.22 218.349 1382.86 211.059M1319.15 274.24C1327.32 249.939 1337.12 232.119 1348.56 220.779C1365.71 203.769 1375.51 203.769 1382.86 211.059M1382 211.917L1308.67 284.639M1302 276.67L1311.8 281.53L1316.7 291.25L1289.75 317.98C1285.69 322.007 1279.11 322.007 1275.05 317.98C1270.98 313.954 1270.98 307.426 1275.05 303.4L1302 276.67Z" stroke="#DFC3B2" stroke-width="5" stroke-linejoin="round"/>
<path d="M1658.15 703.24L1659.07 697.189L1660.02 691.425L1661.01 685.947L1662.03 680.756L1663.09 675.852L1664.18 671.235C1668.06 655.575 1672.59 645.183 1677.76 640.059C1689.94 627.98 1709.68 627.98 1721.86 640.059M1658.15 703.24L1664.25 702.33L1670.07 701.386L1675.59 700.407L1680.83 699.393L1685.77 698.345L1690.43 697.262C1706.22 693.411 1716.7 688.924 1721.86 683.8C1734.05 671.721 1734.05 652.138 1721.86 640.059M1658.15 703.24C1682.66 695.14 1700.63 685.42 1712.06 674.079C1729.22 657.069 1729.22 647.349 1721.86 640.059M1658.15 703.24C1666.32 678.939 1676.12 661.119 1687.56 649.779C1704.71 632.769 1714.51 632.769 1721.86 640.059M1721 640.917L1647.67 713.639M1641 705.67L1650.8 710.53L1655.7 720.25L1628.75 746.98C1624.69 751.007 1618.11 751.007 1614.05 746.98C1609.98 742.954 1609.98 736.426 1614.05 732.4L1641 705.67Z" stroke="#DFC3B2" stroke-width="5" stroke-linejoin="round"/>
<path d="M1748.15 105.24L1749.07 99.1889L1750.02 93.4247L1751.01 87.9472L1752.03 82.7564L1753.09 77.8522L1754.18 73.2347C1758.06 57.5751 1762.59 47.1832 1767.76 42.059C1779.94 29.9803 1799.68 29.9803 1811.86 42.059M1748.15 105.24L1754.25 104.33L1760.07 103.386L1765.59 102.407L1770.83 101.393L1775.77 100.345L1780.43 99.2621C1796.22 95.4113 1806.7 90.9238 1811.86 85.7995C1824.05 73.7209 1824.05 54.1376 1811.86 42.059M1748.15 105.24C1772.66 97.1397 1790.63 87.4196 1802.06 76.0794C1819.22 59.0692 1819.22 49.3491 1811.86 42.059M1748.15 105.24C1756.32 80.9395 1766.12 63.1192 1777.56 51.7791C1794.71 34.7689 1804.51 34.7689 1811.86 42.059M1811 42.9167L1737.67 115.639M1731 107.67L1740.8 112.53L1745.7 122.25L1718.75 148.98C1714.69 153.007 1708.11 153.007 1704.05 148.98C1699.98 144.954 1699.98 138.426 1704.05 134.4L1731 107.67Z" stroke="#DFC3B2" stroke-width="5" stroke-linejoin="round"/>
<path d="M1571.15 994.24L1572.07 988.189L1573.02 982.425L1574.01 976.947L1575.03 971.756L1576.09 966.852L1577.18 962.235C1581.06 946.575 1585.59 936.183 1590.76 931.059C1602.94 918.98 1622.68 918.98 1634.86 931.059M1571.15 994.24L1577.25 993.33L1583.07 992.386L1588.59 991.407L1593.83 990.393L1598.77 989.345L1603.43 988.262C1619.22 984.411 1629.7 979.924 1634.86 974.8C1647.05 962.721 1647.05 943.138 1634.86 931.059M1571.15 994.24C1595.66 986.14 1613.63 976.42 1625.06 965.079C1642.22 948.069 1642.22 938.349 1634.86 931.059M1571.15 994.24C1579.32 969.939 1589.12 952.119 1600.56 940.779C1617.71 923.769 1627.51 923.769 1634.86 931.059M1634 931.917L1560.67 1004.64M1554 996.67L1563.8 1001.53L1568.7 1011.25L1541.75 1037.98C1537.69 1042.01 1531.11 1042.01 1527.05 1037.98C1522.98 1033.95 1522.98 1027.43 1527.05 1023.4L1554 996.67Z" stroke="#DFC3B2" stroke-width="5" stroke-linejoin="round"/>
<path d="M1130.15 105.24L1131.07 99.1889L1132.02 93.4247L1133.01 87.9472L1134.03 82.7564L1135.09 77.8522L1136.18 73.2347C1140.06 57.5751 1144.59 47.1832 1149.76 42.059C1161.94 29.9803 1181.68 29.9803 1193.86 42.059M1130.15 105.24L1136.25 104.33L1142.07 103.386L1147.59 102.407L1152.83 101.393L1157.77 100.345L1162.43 99.2621C1178.22 95.4113 1188.7 90.9238 1193.86 85.7995C1206.05 73.7209 1206.05 54.1376 1193.86 42.059M1130.15 105.24C1154.66 97.1397 1172.63 87.4196 1184.06 76.0794C1201.22 59.0692 1201.22 49.3491 1193.86 42.059M1130.15 105.24C1138.32 80.9395 1148.12 63.1192 1159.56 51.7791C1176.71 34.7689 1186.51 34.7689 1193.86 42.059M1193 42.9167L1119.67 115.639M1113 107.67L1122.8 112.53L1127.7 122.25L1100.75 148.98C1096.69 153.007 1090.11 153.007 1086.05 148.98C1081.98 144.954 1081.98 138.426 1086.05 134.4L1113 107.67Z" stroke="#DFC3B2" stroke-width="5" stroke-linejoin="round"/>
<path d="M872.035 706.424L794 796M830.156 754.496L831.501 753.251C832.805 751.952 833.986 750.497 835.024 748.909C843.089 736.565 840.91 719.054 830.156 709.796L828.812 711.041C827.508 712.34 826.327 713.795 825.289 715.383C817.224 727.727 819.403 745.238 830.156 754.496ZM830.156 754.496L831.241 756.039C832.373 757.536 833.64 758.892 835.024 760.084C845.777 769.341 861.032 766.839 869.097 754.496L868.012 752.953C866.881 751.456 865.613 750.1 864.229 748.908C853.476 739.651 838.221 742.153 830.156 754.496ZM849.627 732.146L850.971 730.901C852.275 729.602 853.456 728.147 854.494 726.559C862.559 714.215 860.38 696.704 849.627 687.446L848.282 688.691C846.978 689.99 845.797 691.445 844.759 693.033C836.694 705.377 838.873 722.888 849.627 732.146ZM849.627 732.146L850.712 733.689C851.843 735.186 853.111 736.542 854.494 737.734C865.248 746.991 880.502 744.489 888.567 732.146L887.482 730.603C886.351 729.106 885.083 727.75 883.7 726.558C872.946 717.301 857.691 719.803 849.627 732.146ZM869.097 709.796L870.441 708.551C871.745 707.252 872.927 705.797 873.964 704.209C882.029 691.865 879.85 674.354 869.097 665.096L867.753 666.341C866.449 667.64 865.267 669.095 864.229 670.683C856.164 683.027 858.344 700.538 869.097 709.796ZM869.097 709.796L870.182 711.339C871.313 712.836 872.581 714.192 873.965 715.384C884.718 724.641 899.973 722.139 908.037 709.796L906.953 708.253C905.821 706.756 904.554 705.4 903.17 704.208C892.417 694.951 877.162 697.453 869.097 709.796ZM810.225 777.375L811.569 776.13C812.874 774.831 814.055 773.376 815.093 771.788C823.158 759.444 820.978 741.933 810.225 732.675L808.881 733.92C807.577 735.219 806.395 736.674 805.358 738.262C797.293 750.606 799.472 768.117 810.225 777.375ZM810.225 777.375L811.31 778.918C812.441 780.415 813.709 781.771 815.093 782.963C825.846 792.22 841.101 789.718 849.166 777.375L848.081 775.832C846.95 774.335 845.682 772.979 844.298 771.787C833.545 762.53 818.29 765.032 810.225 777.375ZM888.101 695.888C886.389 696.169 884.657 696.239 882.935 696.099L881.217 695.888C879.316 680.614 888.562 666.463 901.869 664.281C904.152 663.906 906.469 663.906 908.752 664.281C910.653 679.555 901.407 693.706 888.101 695.888Z" stroke="#EACE97" stroke-width="5"/>
<path d="M847.035 964.424L769 1054M805.156 1012.5L806.501 1011.25C807.805 1009.95 808.986 1008.5 810.024 1006.91C818.089 994.565 815.91 977.054 805.156 967.796L803.812 969.041C802.508 970.34 801.327 971.795 800.289 973.383C792.224 985.727 794.403 1003.24 805.156 1012.5ZM805.156 1012.5L806.241 1014.04C807.373 1015.54 808.64 1016.89 810.024 1018.08C820.777 1027.34 836.032 1024.84 844.097 1012.5L843.012 1010.95C841.881 1009.46 840.613 1008.1 839.229 1006.91C828.476 997.651 813.221 1000.15 805.156 1012.5ZM824.627 990.146L825.971 988.901C827.275 987.602 828.456 986.147 829.494 984.559C837.559 972.215 835.38 954.704 824.627 945.446L823.282 946.691C821.978 947.99 820.797 949.445 819.759 951.033C811.694 963.377 813.873 980.888 824.627 990.146ZM824.627 990.146L825.712 991.689C826.843 993.186 828.111 994.542 829.494 995.734C840.248 1004.99 855.502 1002.49 863.567 990.146L862.482 988.603C861.351 987.106 860.083 985.75 858.7 984.558C847.946 975.301 832.691 977.803 824.627 990.146ZM844.097 967.796L845.441 966.551C846.745 965.252 847.927 963.797 848.964 962.209C857.029 949.865 854.85 932.354 844.097 923.096L842.753 924.341C841.449 925.64 840.267 927.095 839.229 928.683C831.164 941.027 833.344 958.538 844.097 967.796ZM844.097 967.796L845.182 969.339C846.313 970.836 847.581 972.192 848.965 973.384C859.718 982.641 874.973 980.139 883.037 967.796L881.953 966.253C880.821 964.756 879.554 963.4 878.17 962.208C867.417 952.951 852.162 955.453 844.097 967.796ZM785.225 1035.37L786.569 1034.13C787.874 1032.83 789.055 1031.38 790.093 1029.79C798.158 1017.44 795.978 999.933 785.225 990.675L783.881 991.92C782.577 993.219 781.395 994.674 780.358 996.262C772.293 1008.61 774.472 1026.12 785.225 1035.37ZM785.225 1035.37L786.31 1036.92C787.441 1038.42 788.709 1039.77 790.093 1040.96C800.846 1050.22 816.101 1047.72 824.166 1035.37L823.081 1033.83C821.95 1032.33 820.682 1030.98 819.298 1029.79C808.545 1020.53 793.29 1023.03 785.225 1035.37ZM863.101 953.888C861.389 954.169 859.657 954.239 857.935 954.099L856.217 953.888C854.316 938.614 863.562 924.463 876.869 922.281C879.152 921.906 881.469 921.906 883.752 922.281C885.653 937.555 876.407 951.706 863.101 953.888Z" stroke="#EACE97" stroke-width="5"/>
<path d="M1317.03 607.424L1239 697M1275.16 655.496L1276.5 654.251C1277.8 652.952 1278.99 651.497 1280.02 649.909C1288.09 637.565 1285.91 620.054 1275.16 610.796L1273.81 612.041C1272.51 613.34 1271.33 614.795 1270.29 616.383C1262.22 628.727 1264.4 646.238 1275.16 655.496ZM1275.16 655.496L1276.24 657.039C1277.37 658.536 1278.64 659.892 1280.02 661.084C1290.78 670.341 1306.03 667.839 1314.1 655.496L1313.01 653.953C1311.88 652.456 1310.61 651.1 1309.23 649.908C1298.48 640.651 1283.22 643.153 1275.16 655.496ZM1294.63 633.146L1295.97 631.901C1297.28 630.602 1298.46 629.147 1299.49 627.559C1307.56 615.215 1305.38 597.704 1294.63 588.446L1293.28 589.691C1291.98 590.99 1290.8 592.445 1289.76 594.033C1281.69 606.377 1283.87 623.888 1294.63 633.146ZM1294.63 633.146L1295.71 634.689C1296.84 636.186 1298.11 637.542 1299.49 638.734C1310.25 647.991 1325.5 645.489 1333.57 633.146L1332.48 631.603C1331.35 630.106 1330.08 628.75 1328.7 627.558C1317.95 618.301 1302.69 620.803 1294.63 633.146ZM1314.1 610.796L1315.44 609.551C1316.75 608.252 1317.93 606.797 1318.96 605.209C1327.03 592.865 1324.85 575.354 1314.1 566.096L1312.75 567.341C1311.45 568.64 1310.27 570.095 1309.23 571.683C1301.16 584.027 1303.34 601.538 1314.1 610.796ZM1314.1 610.796L1315.18 612.339C1316.31 613.836 1317.58 615.192 1318.96 616.384C1329.72 625.641 1344.97 623.139 1353.04 610.796L1351.95 609.253C1350.82 607.756 1349.55 606.4 1348.17 605.208C1337.42 595.951 1322.16 598.453 1314.1 610.796ZM1255.23 678.375L1256.57 677.13C1257.87 675.831 1259.05 674.376 1260.09 672.788C1268.16 660.444 1265.98 642.933 1255.23 633.675L1253.88 634.92C1252.58 636.219 1251.4 637.674 1250.36 639.262C1242.29 651.606 1244.47 669.117 1255.23 678.375ZM1255.23 678.375L1256.31 679.918C1257.44 681.415 1258.71 682.771 1260.09 683.963C1270.85 693.22 1286.1 690.718 1294.17 678.375L1293.08 676.832C1291.95 675.335 1290.68 673.979 1289.3 672.787C1278.54 663.53 1263.29 666.032 1255.23 678.375ZM1333.1 596.888C1331.39 597.169 1329.66 597.239 1327.93 597.099L1326.22 596.888C1324.32 581.614 1333.56 567.463 1346.87 565.281C1349.15 564.906 1351.47 564.906 1353.75 565.281C1355.65 580.555 1346.41 594.706 1333.1 596.888Z" stroke="#EACE97" stroke-width="5"/>
<path d="M1166.03 437.424L1088 527M1124.16 485.496L1125.5 484.251C1126.8 482.952 1127.99 481.497 1129.02 479.909C1137.09 467.565 1134.91 450.054 1124.16 440.796L1122.81 442.041C1121.51 443.34 1120.33 444.795 1119.29 446.383C1111.22 458.727 1113.4 476.238 1124.16 485.496ZM1124.16 485.496L1125.24 487.039C1126.37 488.536 1127.64 489.892 1129.02 491.084C1139.78 500.341 1155.03 497.839 1163.1 485.496L1162.01 483.953C1160.88 482.456 1159.61 481.1 1158.23 479.908C1147.48 470.651 1132.22 473.153 1124.16 485.496ZM1143.63 463.146L1144.97 461.901C1146.28 460.602 1147.46 459.147 1148.49 457.559C1156.56 445.215 1154.38 427.704 1143.63 418.446L1142.28 419.691C1140.98 420.99 1139.8 422.445 1138.76 424.033C1130.69 436.377 1132.87 453.888 1143.63 463.146ZM1143.63 463.146L1144.71 464.689C1145.84 466.186 1147.11 467.542 1148.49 468.734C1159.25 477.991 1174.5 475.489 1182.57 463.146L1181.48 461.603C1180.35 460.106 1179.08 458.75 1177.7 457.558C1166.95 448.301 1151.69 450.803 1143.63 463.146ZM1163.1 440.796L1164.44 439.551C1165.75 438.252 1166.93 436.797 1167.96 435.209C1176.03 422.865 1173.85 405.354 1163.1 396.096L1161.75 397.341C1160.45 398.64 1159.27 400.095 1158.23 401.683C1150.16 414.027 1152.34 431.538 1163.1 440.796ZM1163.1 440.796L1164.18 442.339C1165.31 443.836 1166.58 445.192 1167.96 446.384C1178.72 455.641 1193.97 453.139 1202.04 440.796L1200.95 439.253C1199.82 437.756 1198.55 436.4 1197.17 435.208C1186.42 425.951 1171.16 428.453 1163.1 440.796ZM1104.23 508.375L1105.57 507.13C1106.87 505.831 1108.05 504.376 1109.09 502.788C1117.16 490.444 1114.98 472.933 1104.23 463.675L1102.88 464.92C1101.58 466.219 1100.4 467.674 1099.36 469.262C1091.29 481.606 1093.47 499.117 1104.23 508.375ZM1104.23 508.375L1105.31 509.918C1106.44 511.415 1107.71 512.771 1109.09 513.963C1119.85 523.22 1135.1 520.718 1143.17 508.375L1142.08 506.832C1140.95 505.335 1139.68 503.979 1138.3 502.787C1127.54 493.53 1112.29 496.032 1104.23 508.375ZM1182.1 426.888C1180.39 427.169 1178.66 427.239 1176.93 427.099L1175.22 426.888C1173.32 411.614 1182.56 397.463 1195.87 395.281C1198.15 394.906 1200.47 394.906 1202.75 395.281C1204.65 410.555 1195.41 424.706 1182.1 426.888Z" stroke="#EACE97" stroke-width="5"/>
<path d="M800.153 498.24L801.07 492.189L802.023 486.425L803.01 480.947L804.032 475.756L805.089 470.852L806.181 466.235C810.064 450.575 814.589 440.183 819.757 435.059C831.937 422.98 851.685 422.98 863.865 435.059M800.153 498.24L806.255 497.33L812.068 496.386L817.591 495.407L822.826 494.393L827.771 493.345L832.427 492.262C848.218 488.411 858.698 483.924 863.865 478.8C876.045 466.721 876.045 447.138 863.865 435.059M800.153 498.24C824.658 490.14 842.628 480.42 854.063 469.079C871.216 452.069 871.216 442.349 863.865 435.059M800.153 498.24C808.321 473.939 818.123 456.119 829.559 444.779C846.712 427.769 856.514 427.769 863.865 435.059M863 435.917L789.667 508.639M783 500.67L792.802 505.53L797.703 515.25L770.748 541.98C766.688 546.007 760.105 546.007 756.045 541.98C751.985 537.954 751.985 531.426 756.045 527.4L783 500.67Z" stroke="#DFC3B2" stroke-width="5" stroke-linejoin="round"/>
<path d="M1133.15 875.24L1134.07 869.189L1135.02 863.425L1136.01 857.947L1137.03 852.756L1138.09 847.852L1139.18 843.235C1143.06 827.575 1147.59 817.183 1152.76 812.059C1164.94 799.98 1184.68 799.98 1196.86 812.059M1133.15 875.24L1139.25 874.33L1145.07 873.386L1150.59 872.407L1155.83 871.393L1160.77 870.345L1165.43 869.262C1181.22 865.411 1191.7 860.924 1196.86 855.8C1209.05 843.721 1209.05 824.138 1196.86 812.059M1133.15 875.24C1157.66 867.14 1175.63 857.42 1187.06 846.079C1204.22 829.069 1204.22 819.349 1196.86 812.059M1133.15 875.24C1141.32 850.939 1151.12 833.119 1162.56 821.779C1179.71 804.769 1189.51 804.769 1196.86 812.059M1196 812.917L1122.67 885.639M1116 877.67L1125.8 882.53L1130.7 892.25L1103.75 918.98C1099.69 923.007 1093.11 923.007 1089.05 918.98C1084.98 914.954 1084.98 908.426 1089.05 904.4L1116 877.67Z" stroke="#DFC3B2" stroke-width="5" stroke-linejoin="round"/>
<path d="M922.035 221.424L844 311M880.156 269.496L881.501 268.251C882.805 266.952 883.986 265.497 885.024 263.909C893.089 251.565 890.91 234.054 880.156 224.796L878.812 226.041C877.508 227.34 876.327 228.795 875.289 230.383C867.224 242.727 869.403 260.238 880.156 269.496ZM880.156 269.496L881.241 271.039C882.373 272.536 883.64 273.892 885.024 275.084C895.777 284.341 911.032 281.839 919.097 269.496L918.012 267.953C916.881 266.456 915.613 265.1 914.229 263.908C903.476 254.651 888.221 257.153 880.156 269.496ZM899.627 247.146L900.971 245.901C902.275 244.602 903.456 243.147 904.494 241.559C912.559 229.215 910.38 211.704 899.627 202.446L898.282 203.691C896.978 204.99 895.797 206.445 894.759 208.033C886.694 220.377 888.873 237.888 899.627 247.146ZM899.627 247.146L900.712 248.689C901.843 250.186 903.111 251.542 904.494 252.734C915.248 261.991 930.502 259.489 938.567 247.146L937.482 245.603C936.351 244.106 935.083 242.75 933.7 241.558C922.946 232.301 907.691 234.803 899.627 247.146ZM919.097 224.796L920.441 223.551C921.745 222.252 922.927 220.797 923.964 219.209C932.029 206.865 929.85 189.354 919.097 180.096L917.753 181.341C916.449 182.64 915.267 184.095 914.229 185.683C906.164 198.027 908.344 215.538 919.097 224.796ZM919.097 224.796L920.182 226.339C921.313 227.836 922.581 229.192 923.965 230.384C934.718 239.641 949.973 237.139 958.037 224.796L956.953 223.253C955.821 221.756 954.554 220.4 953.17 219.208C942.417 209.951 927.162 212.453 919.097 224.796ZM860.225 292.375L861.569 291.13C862.874 289.831 864.055 288.376 865.093 286.788C873.158 274.444 870.978 256.933 860.225 247.675L858.881 248.92C857.577 250.219 856.395 251.674 855.358 253.262C847.293 265.606 849.472 283.117 860.225 292.375ZM860.225 292.375L861.31 293.918C862.441 295.415 863.709 296.771 865.093 297.963C875.846 307.22 891.101 304.718 899.166 292.375L898.081 290.832C896.95 289.335 895.682 287.979 894.298 286.787C883.545 277.53 868.29 280.032 860.225 292.375ZM938.101 210.888C936.389 211.169 934.657 211.239 932.935 211.099L931.217 210.888C929.316 195.614 938.562 181.463 951.869 179.281C954.152 178.906 956.469 178.906 958.752 179.281C960.653 194.555 951.407 208.706 938.101 210.888Z" stroke="#EACE97" stroke-width="5"/>
<path d="M702.035 75.4236L624 165M660.156 123.496L661.501 122.251C662.805 120.952 663.986 119.497 665.024 117.909C673.089 105.565 670.91 88.0538 660.156 78.796L658.812 80.0413C657.508 81.3398 656.327 82.7951 655.289 84.3834C647.224 96.7269 649.403 114.238 660.156 123.496ZM660.156 123.496L661.241 125.039C662.373 126.536 663.64 127.892 665.024 129.084C675.777 138.341 691.032 135.839 699.097 123.496L698.012 121.953C696.881 120.456 695.613 119.1 694.229 117.908C683.476 108.651 668.221 111.153 660.156 123.496ZM679.627 101.146L680.971 99.9007C682.275 98.6023 683.456 97.147 684.494 95.5587C692.559 83.2151 690.38 65.7038 679.627 56.446L678.282 57.6913C676.978 58.9898 675.797 60.445 674.759 62.0334C666.694 74.3769 668.873 91.8883 679.627 101.146ZM679.627 101.146L680.712 102.689C681.843 104.186 683.111 105.542 684.494 106.734C695.248 115.991 710.502 113.489 718.567 101.146L717.482 99.6029C716.351 98.1058 715.083 96.7497 713.7 95.5584C702.946 86.3009 687.691 88.8026 679.627 101.146ZM699.097 78.796L700.441 77.5507C701.745 76.2523 702.927 74.797 703.964 73.2087C712.029 60.8651 709.85 43.3538 699.097 34.096L697.753 35.3413C696.449 36.6397 695.267 38.095 694.229 39.6834C686.164 52.0269 688.344 69.5383 699.097 78.796ZM699.097 78.796L700.182 80.3392C701.313 81.8362 702.581 83.1923 703.965 84.3836C714.718 93.6411 729.973 91.1395 738.037 78.796L736.953 77.2528C735.821 75.7558 734.554 74.3997 733.17 73.2084C722.417 63.9509 707.162 66.4526 699.097 78.796ZM640.225 146.375L641.569 145.13C642.874 143.831 644.055 142.376 645.093 140.788C653.158 128.444 650.978 110.933 640.225 101.675L638.881 102.92C637.577 104.219 636.395 105.674 635.358 107.262C627.293 119.606 629.472 137.117 640.225 146.375ZM640.225 146.375L641.31 147.918C642.441 149.415 643.709 150.771 645.093 151.963C655.846 161.22 671.101 158.718 679.166 146.375L678.081 144.832C676.95 143.335 675.682 141.979 674.298 140.787C663.545 131.53 648.29 134.032 640.225 146.375ZM718.101 64.8885C716.389 65.1693 714.657 65.2395 712.935 65.0991L711.217 64.8882C709.316 49.6139 718.562 35.4628 731.869 33.2808C734.152 32.9064 736.469 32.9064 738.752 33.2808C740.653 48.5554 731.407 62.7065 718.101 64.8885Z" stroke="#EACE97" stroke-width="5"/>
</svg>
