<svg width="1957" height="219" viewBox="0 0 1957 219" fill="none" xmlns="http://www.w3.org/2000/svg">
<g filter="url(#filter0_d_109_792)">
<g filter="url(#filter1_d_109_792)">
<path d="M974.707 156V154.5L977.707 153.45C979.707 152.85 981.007 151.95 981.607 150.75C982.307 149.55 982.657 147.95 982.657 145.95V67.35C982.657 65.35 982.307 63.75 981.607 62.55C980.907 61.35 979.557 60.4 977.557 59.7L974.707 58.5V57H1011.16C1026.06 57 1036.81 59.75 1043.41 65.25C1050.11 70.65 1053.46 77.8 1053.46 86.7C1053.46 92.4 1052.06 97.65 1049.26 102.45C1046.56 107.15 1042.06 110.9 1035.76 113.7C1029.46 116.5 1020.96 117.9 1010.26 117.9H1005.16V145.5C1005.16 149.4 1007.11 151.95 1011.01 153.15L1015.51 154.5V156H974.707ZM1005.16 114.9H1010.86C1015.76 114.9 1019.76 114.1 1022.86 112.5C1025.96 110.9 1028.26 108.1 1029.76 104.1C1031.26 100.1 1032.01 94.55 1032.01 87.45C1032.01 80.25 1031.16 74.65 1029.46 70.65C1027.86 66.65 1025.46 63.9 1022.26 62.4C1019.06 60.8 1015.06 60 1010.26 60H1005.16V114.9ZM1045.12 156V154.5L1048.87 153.15C1050.87 152.35 1052.42 151.4 1053.52 150.3C1054.62 149.1 1055.52 147.45 1056.22 145.35L1087.12 56.7H1099.87L1130.32 145.95C1131.12 148.15 1132.02 149.85 1133.02 151.05C1134.02 152.15 1135.57 153.1 1137.67 153.9L1139.47 154.5V156H1101.37V154.5L1103.62 153.75C1105.72 152.95 1106.97 151.85 1107.37 150.45C1107.87 148.95 1107.82 147.2 1107.22 145.2L1100.17 123.6H1066.87L1059.67 144.75C1058.97 146.95 1058.72 148.7 1058.92 150C1059.22 151.3 1060.42 152.35 1062.52 153.15L1065.82 154.5V156H1045.12ZM1067.92 120.6H1099.27L1084.12 73.95L1067.92 120.6ZM1177.03 158.7C1171.53 158.7 1165.93 158 1160.23 156.6C1154.53 155.3 1149.78 153.55 1145.98 151.35L1146.73 130.95H1148.23L1152.88 140.7C1154.28 143.5 1155.78 146 1157.38 148.2C1158.98 150.3 1161.18 151.95 1163.98 153.15C1165.98 154.15 1167.88 154.85 1169.68 155.25C1171.58 155.55 1173.68 155.7 1175.98 155.7C1182.08 155.7 1186.88 154.05 1190.38 150.75C1193.98 147.45 1195.78 143.2 1195.78 138C1195.78 133.1 1194.58 129.3 1192.18 126.6C1189.78 123.8 1185.93 121.1 1180.63 118.5L1174.48 115.8C1165.88 112 1159.13 107.65 1154.23 102.75C1149.43 97.75 1147.03 91.15 1147.03 82.95C1147.03 77.05 1148.53 71.95 1151.53 67.65C1154.63 63.35 1158.88 60.05 1164.28 57.75C1169.78 55.45 1176.18 54.3 1183.48 54.3C1188.78 54.3 1193.78 55 1198.48 56.4C1203.28 57.8 1207.43 59.7 1210.93 62.1L1210.03 80.1H1208.53L1202.38 68.85C1200.68 65.35 1198.98 62.9 1197.28 61.5C1195.58 60 1193.63 58.95 1191.43 58.35C1190.13 57.95 1188.93 57.7 1187.83 57.6C1186.73 57.4 1185.33 57.3 1183.63 57.3C1178.53 57.3 1174.23 58.8 1170.73 61.8C1167.23 64.7 1165.48 68.65 1165.48 73.65C1165.48 78.75 1166.83 82.85 1169.53 85.95C1172.23 88.95 1176.18 91.65 1181.38 94.05L1188.28 97.05C1197.88 101.25 1204.78 105.75 1208.98 110.55C1213.18 115.25 1215.28 121.35 1215.28 128.85C1215.28 137.65 1211.93 144.85 1205.23 150.45C1198.63 155.95 1189.23 158.7 1177.03 158.7ZM1240.75 156V154.5L1246.9 153C1251 152.1 1253.05 149.6 1253.05 145.5V60H1240.3C1236.6 60 1233.95 61 1232.35 63C1230.75 64.9 1229.05 67.55 1227.25 70.95L1221.85 81.45H1220.35L1221.1 57H1307.65L1308.25 81.45H1306.75L1301.35 70.95C1299.65 67.55 1298 64.9 1296.4 63C1294.8 61 1292.15 60 1288.45 60H1275.7V145.5C1275.7 149.6 1277.75 152.1 1281.85 153L1288 154.5V156H1240.75ZM1314.7 156V154.5L1317.85 153.45C1319.85 152.75 1321.15 151.85 1321.75 150.75C1322.35 149.55 1322.65 147.9 1322.65 145.8V67.35C1322.65 65.35 1322.35 63.8 1321.75 62.7C1321.25 61.5 1320.05 60.55 1318.15 59.85L1314.7 58.5V57H1357.6C1369.4 57 1378.45 59.25 1384.75 63.75C1391.05 68.15 1394.2 74.3 1394.2 82.2C1394.2 86.6 1392.55 91 1389.25 95.4C1385.95 99.8 1380.75 103.2 1373.65 105.6L1394.5 147C1395.4 148.7 1396.4 150.1 1397.5 151.2C1398.7 152.2 1400.25 153.1 1402.15 153.9L1404.1 154.65V156H1377.25L1355.05 108.75H1344.85V145.8C1344.85 147.7 1345.15 149.25 1345.75 150.45C1346.35 151.65 1347.6 152.55 1349.5 153.15L1353.1 154.5V156H1314.7ZM1344.85 105.75H1352.05C1359.25 105.75 1364.45 103.85 1367.65 100.05C1370.85 96.15 1372.45 90.4 1372.45 82.8C1372.45 75.1 1370.95 69.4 1367.95 65.7C1364.95 61.9 1359.9 60 1352.8 60H1344.85V105.75ZM1422.87 156V154.5L1427.37 153.3C1430.87 152.3 1432.62 149.8 1432.62 145.8V117.3L1407.87 66.9C1406.97 64.9 1406.12 63.4 1405.32 62.4C1404.62 61.4 1403.52 60.55 1402.02 59.85L1399.32 58.5V57H1439.52V58.5L1436.82 59.55C1434.62 60.45 1433.42 61.7 1433.22 63.3C1433.02 64.8 1433.42 66.7 1434.42 69L1452.12 108.3L1471.92 67.5C1472.72 65.9 1473.02 64.25 1472.82 62.55C1472.72 60.85 1471.67 59.75 1469.67 59.25L1467.57 58.5V57H1485.57V58.5L1482.72 59.55C1480.82 60.25 1479.42 61.25 1478.52 62.55C1477.62 63.75 1476.72 65.3 1475.82 67.2L1455.27 110.4V145.8C1455.27 147.8 1455.62 149.45 1456.32 150.75C1457.12 151.95 1458.47 152.8 1460.37 153.3L1465.02 154.5V156H1422.87Z" fill="#56371B"/>
</g>
<path d="M620.645 92.3636V94.3636H622.819L622.638 92.1967L620.645 92.3636ZM592.605 92.3636L590.612 92.5344L590.769 94.3636H592.605V92.3636ZM591.014 86.0497L589.182 86.853L589.188 86.8664L589.194 86.8797L591.014 86.0497ZM587.534 81.1776L586.153 82.6243L586.17 82.6403L586.187 82.6559L587.534 81.1776ZM582.214 77.9957L581.528 79.8745L581.542 79.8793L581.555 79.8839L582.214 77.9957ZM563.322 80.233L562.174 78.5953L562.166 78.6009L563.322 80.233ZM556.064 89.9276L554.203 89.1949L554.198 89.2076L556.064 89.9276ZM556.113 120.751L554.252 121.484L554.256 121.493L554.26 121.502L556.113 120.751ZM563.422 130.197L562.312 131.862L562.318 131.866L562.324 131.87L563.422 130.197ZM581.767 132.385L582.362 134.294L582.376 134.29L582.39 134.285L581.767 132.385ZM587.037 129.551L588.307 131.096L588.307 131.096L587.037 129.551ZM590.666 125.126L588.911 124.166L588.905 124.178L590.666 125.126ZM592.605 119.21L592.619 117.21L590.887 117.198L590.628 118.911L592.605 119.21ZM620.645 119.409L622.639 119.562L622.803 117.424L620.659 117.409L620.645 119.409ZM617.015 132.584L618.825 133.435L618.828 133.43L617.015 132.584ZM608.116 144.913L609.518 146.34L609.518 146.34L608.116 144.913ZM593.947 153.962L593.195 152.108L593.947 153.962ZM549.153 151.376L548.199 153.134L548.203 153.136L549.153 151.376ZM531.604 133.678L529.85 134.64L529.853 134.646L531.604 133.678ZM531.753 76.4545L533.495 77.4372L533.496 77.434L531.753 76.4545ZM549.452 58.8054L550.396 60.5684L550.402 60.5651L549.452 58.8054ZM592.058 55.4247L592.676 53.5227L592.676 53.5227L592.058 55.4247ZM606.277 63.1307L605 64.6702L605.008 64.6763L606.277 63.1307ZM616.121 75.5099L614.337 76.414L614.337 76.414L616.121 75.5099ZM613.635 90.3636H611.635V94.3636H613.635V90.3636ZM599.615 94.3636H601.615V90.3636H599.615V94.3636ZM594.381 90.4223L594.063 88.4477L590.114 89.0835L590.431 91.0581L594.381 90.4223ZM589.729 88.2198L590.38 90.1109L594.162 88.8084L593.511 86.9174L589.729 88.2198ZM592.083 83.7183L591.1 81.9763L587.616 83.9417L588.599 85.6836L592.083 83.7183ZM587.098 83.578L588.426 85.0733L591.417 82.4168L590.089 80.9215L587.098 83.578ZM587.548 78.5704L585.95 77.3667L583.543 80.5612L585.14 81.7649L587.548 78.5704ZM582.829 80.3958L584.647 81.2294L586.314 77.5935L584.497 76.7598L582.829 80.3958ZM580.969 75.5271L579.029 75.0423L578.06 78.9231L580 79.4078L580.969 75.5271ZM576.772 78.9094L578.767 79.0501L579.049 75.06L577.054 74.9193L576.772 78.9094ZM571.757 75.0479L569.772 75.2881L570.252 79.2592L572.238 79.0189L571.757 75.0479ZM566.857 80.4989L568.673 79.6603L566.996 76.0289L565.18 76.8674L566.857 80.4989ZM559.565 80.7908L558.147 82.2012L560.968 85.0372L562.386 83.6268L559.565 80.7908ZM559.111 88.0848L560.057 86.3224L556.532 84.4315L555.587 86.1939L559.111 88.0848ZM552.965 93.1199L552.477 95.0595L556.356 96.0348L556.844 94.0952L552.965 93.1199ZM555.747 101.365L555.879 99.3689L551.888 99.1043L551.756 101.1L555.747 101.365ZM551.753 109.202L551.88 111.198L555.872 110.945L555.745 108.949L551.753 109.202ZM556.851 116.47L556.367 114.529L552.486 115.496L552.969 117.437L556.851 116.47ZM555.657 124.455L556.622 126.207L560.126 124.279L559.162 122.526L555.657 124.455ZM562.44 126.858L560.994 125.476L558.231 128.369L559.677 129.75L562.44 126.858ZM565.274 133.465L567.107 134.265L568.707 130.599L566.874 129.799L565.274 133.465ZM572.124 131.174L570.137 130.943L569.675 134.916L571.662 135.147L572.124 131.174ZM576.764 135.275L578.76 135.155L578.519 131.162L576.523 131.282L576.764 135.275ZM579.669 130.867L577.713 131.284L578.547 135.196L580.503 134.779L579.669 130.867ZM583.953 133.702L585.796 132.926L584.243 129.24L582.4 130.016L583.953 133.702ZM584.722 128.779L583.055 129.885L585.267 133.218L586.933 132.112L584.722 128.779ZM589.517 129.998L590.931 128.584L588.103 125.756L586.689 127.17L589.517 129.998ZM588.261 125.251L587.152 126.915L590.479 129.134L591.589 127.47L588.261 125.251ZM593.188 124.505L593.974 122.666L590.296 121.095L589.51 122.934L593.188 124.505ZM590.364 120.296L589.913 122.244L593.81 123.146L594.261 121.198L590.364 120.296ZM599.601 121.26L601.601 121.274L601.629 117.274L599.629 117.26L599.601 121.26ZM613.649 117.359L611.649 117.345L611.621 121.345L613.621 121.359L613.649 117.359ZM618.235 122.456L617.877 124.424L621.813 125.14L622.171 123.172L618.235 122.456ZM620.222 130.125L620.928 128.254L617.185 126.843L616.479 128.714L620.222 130.125ZM613.504 134.934L612.481 136.653L615.919 138.699L616.941 136.98L613.504 134.934ZM612.245 143.444L613.557 141.934L610.538 139.31L609.226 140.82L612.245 143.444ZM603.704 146.129L602.131 147.363L604.6 150.51L606.173 149.276L603.704 146.129ZM598.701 153.998L600.486 153.095L598.68 149.526L596.895 150.429L598.701 153.998ZM588.671 153.631L586.742 154.157L587.795 158.016L589.724 157.49L588.671 153.631ZM579.47 159.204L581.464 159.055L581.165 155.066L579.171 155.215L579.47 159.204ZM568.001 155.061L566.012 154.847L565.584 158.824L567.573 159.038L568.001 155.061ZM554.392 155.954L556.265 156.657L557.671 152.913L555.799 152.209L554.392 155.954ZM545.04 146.37L543.441 145.169L541.038 148.367L542.637 149.568L545.04 146.37ZM533.391 140.184L534.575 141.796L537.798 139.426L536.613 137.815L533.391 140.184ZM530.47 126.257L529.799 124.372L526.031 125.714L526.702 127.598L530.47 126.257ZM523.528 112.668L523.712 114.66L527.695 114.291L527.511 112.3L523.528 112.668ZM527.517 97.8612L527.704 95.8699L523.722 95.4955L523.535 97.4867L527.517 97.8612ZM526.783 82.5127L526.098 84.3919L529.856 85.7615L530.541 83.8824L526.783 82.5127ZM536.798 72.3333L537.992 70.7291L534.784 68.3405L533.589 69.9448L536.798 72.3333ZM542.912 60.5884L541.306 61.7812L543.692 64.9919L545.297 63.7991L542.912 60.5884ZM556.032 57.9896L557.902 57.2802L556.483 53.5403L554.613 54.2497L556.032 57.9896ZM567.641 51.1496L565.653 51.3691L566.092 55.3449L568.08 55.1255L567.641 51.1496ZM578.676 54.9343L580.672 55.0691L580.941 51.0782L578.946 50.9434L578.676 54.9343ZM588.164 52.2779L586.214 51.8318L585.322 55.731L587.271 56.1771L588.164 52.2779ZM595.089 58.6866L596.931 59.466L598.49 55.7823L596.648 55.0029L595.089 58.6866ZM604.135 59.0365L602.475 57.9215L600.244 61.2421L601.905 62.3572L604.135 59.0365ZM607.788 67.2188L609.189 68.6456L612.043 65.8426L610.641 64.4158L607.788 67.2188ZM615.841 70.9761L614.768 69.2881L611.392 71.4335L612.465 73.1215L615.841 70.9761ZM616.006 80.2289L616.705 82.1026L620.453 80.7035L619.753 78.8298L616.006 80.2289ZM622.08 87.6813L621.754 85.7081L617.808 86.3606L618.134 88.3338L622.08 87.6813ZM620.645 90.3636H613.635V94.3636H620.645V90.3636ZM599.615 90.3636H592.605V94.3636H599.615V90.3636ZM594.598 92.1928C594.546 91.592 594.474 91.0017 594.381 90.4223L590.431 91.0581C590.508 91.5364 590.569 92.0285 590.612 92.5344L594.598 92.1928ZM593.511 86.9174C593.311 86.337 593.085 85.771 592.834 85.2197L589.194 86.8797C589.392 87.3119 589.57 87.7585 589.729 88.2198L593.511 86.9174ZM592.846 85.2464C592.615 84.7208 592.361 84.2113 592.083 83.7183L588.599 85.6836C588.81 86.0576 589.004 86.4473 589.182 86.853L592.846 85.2464ZM590.089 80.9215C589.709 80.4942 589.306 80.0868 588.881 79.6992L586.187 82.6559C586.509 82.9498 586.813 83.2572 587.098 83.578L590.089 80.9215ZM588.915 79.7308C588.483 79.3183 588.027 78.9314 587.548 78.5704L585.14 81.7649C585.496 82.0331 585.834 82.3195 586.153 82.6243L588.915 79.7308ZM584.497 76.7598C583.973 76.5196 583.432 76.3024 582.874 76.1076L581.555 79.8839C581.999 80.039 582.424 80.2098 582.829 80.3958L584.497 76.7598ZM582.9 76.117C582.275 75.8889 581.632 75.6925 580.969 75.5271L580 79.4078C580.531 79.5405 581.04 79.6962 581.528 79.8745L582.9 76.117ZM577.054 74.9193C576.417 74.8745 575.768 74.8523 575.105 74.8523V78.8523C575.678 78.8523 576.234 78.8715 576.772 78.9094L577.054 74.9193ZM575.105 74.8523C573.956 74.8523 572.84 74.9168 571.757 75.0479L572.238 79.0189C573.151 78.9084 574.106 78.8523 575.105 78.8523V74.8523ZM565.18 76.8674C564.124 77.3551 563.122 77.9311 562.174 78.5953L564.47 81.8706C565.221 81.3444 566.016 80.8872 566.857 80.4989L565.18 76.8674ZM562.166 78.6009C561.24 79.2568 560.373 79.9871 559.565 80.7908L562.386 83.6268C563.037 82.9787 563.735 82.3918 564.478 81.865L562.166 78.6009ZM555.587 86.1939C555.077 87.1431 554.617 88.1439 554.203 89.1949L557.925 90.6602C558.285 89.7458 558.681 88.8879 559.111 88.0848L555.587 86.1939ZM554.198 89.2076C553.718 90.4507 553.308 91.7553 552.965 93.1199L556.844 94.0952C557.15 92.8776 557.512 91.7289 557.93 90.6475L554.198 89.2076ZM551.756 101.1C551.67 102.39 551.628 103.721 551.628 105.091H555.628C555.628 103.803 555.668 102.561 555.747 101.365L551.756 101.1ZM551.628 105.091C551.628 106.508 551.669 107.878 551.753 109.202L555.745 108.949C555.667 107.715 555.628 106.429 555.628 105.091H551.628ZM552.969 117.437C553.324 118.86 553.751 120.21 554.252 121.484L557.974 120.019C557.542 118.921 557.167 117.739 556.851 116.47L552.969 117.437ZM554.26 121.502C554.679 122.539 555.145 123.524 555.657 124.455L559.162 122.526C558.73 121.742 558.332 120.901 557.967 120.001L554.26 121.502ZM559.677 129.75C560.497 130.533 561.375 131.237 562.312 131.862L564.531 128.533C563.789 128.039 563.093 127.481 562.44 126.858L559.677 129.75ZM562.324 131.87C563.259 132.483 564.243 133.015 565.274 133.465L566.874 129.799C566.048 129.438 565.263 129.014 564.519 128.525L562.324 131.87ZM571.662 135.147C572.713 135.269 573.795 135.33 574.906 135.33V131.33C573.939 131.33 573.012 131.277 572.124 131.174L571.662 135.147ZM574.906 135.33C575.538 135.33 576.157 135.311 576.764 135.275L576.523 131.282C576 131.314 575.461 131.33 574.906 131.33V135.33ZM580.503 134.779C581.139 134.643 581.759 134.482 582.362 134.294L581.172 130.475C580.692 130.625 580.191 130.756 579.669 130.867L580.503 134.779ZM582.39 134.285C582.925 134.11 583.446 133.916 583.953 133.702L582.4 130.016C581.997 130.186 581.579 130.342 581.144 130.484L582.39 134.285ZM586.933 132.112C587.41 131.795 587.868 131.457 588.307 131.096L585.767 128.006C585.434 128.279 585.086 128.537 584.722 128.779L586.933 132.112ZM588.307 131.096C588.73 130.749 589.133 130.383 589.517 129.998L586.689 127.17C586.397 127.462 586.09 127.74 585.767 128.006L588.307 131.096ZM591.589 127.47C591.889 127.021 592.168 126.556 592.427 126.075L588.905 124.178C588.705 124.55 588.49 124.908 588.261 125.251L591.589 127.47ZM592.421 126.086C592.701 125.574 592.956 125.047 593.188 124.505L589.51 122.934C589.328 123.359 589.129 123.769 588.911 124.166L592.421 126.086ZM594.261 121.198C594.388 120.646 594.495 120.084 594.582 119.51L590.628 118.911C590.555 119.386 590.467 119.848 590.364 120.296L594.261 121.198ZM592.591 121.21L599.601 121.26L599.629 117.26L592.619 117.21L592.591 121.21ZM613.621 121.359L620.631 121.409L620.659 117.409L613.649 117.359L613.621 121.359ZM618.651 119.256C618.569 120.315 618.431 121.381 618.235 122.456L622.171 123.172C622.39 121.965 622.547 120.762 622.639 119.562L618.651 119.256ZM616.479 128.714C616.102 129.715 615.677 130.723 615.203 131.738L618.828 133.43C619.343 132.326 619.808 131.225 620.222 130.125L616.479 128.714ZM615.206 131.733C614.694 132.82 614.127 133.887 613.504 134.934L616.941 136.98C617.63 135.823 618.258 134.641 618.825 133.435L615.206 131.733ZM609.226 140.82C608.439 141.725 607.602 142.614 606.714 143.487L609.518 146.34C610.478 145.396 611.387 144.431 612.245 143.444L609.226 140.82ZM606.715 143.487C605.772 144.413 604.769 145.294 603.704 146.129L606.173 149.276C607.352 148.351 608.467 147.373 609.518 146.34L606.715 143.487ZM596.895 150.429C595.714 151.027 594.481 151.587 593.195 152.108L594.699 155.815C596.083 155.253 597.417 154.648 598.701 153.998L596.895 150.429ZM593.195 152.108C591.755 152.693 590.247 153.201 588.671 153.631L589.724 157.49C591.447 157.02 593.105 156.462 594.699 155.815L593.195 152.108ZM579.171 155.215C577.602 155.333 575.981 155.392 574.309 155.392V159.392C576.075 159.392 577.795 159.33 579.47 159.204L579.171 155.215ZM574.309 155.392C572.149 155.392 570.046 155.282 568.001 155.061L567.573 159.038C569.767 159.275 572.012 159.392 574.309 159.392V155.392ZM555.799 152.209C553.839 151.473 551.941 150.609 550.104 149.617L548.203 153.136C550.199 154.215 552.263 155.154 554.392 155.954L555.799 152.209ZM550.107 149.619C548.322 148.65 546.633 147.567 545.04 146.37L542.637 149.568C544.39 150.885 546.244 152.074 548.199 153.134L550.107 149.619ZM536.613 137.815C535.443 136.224 534.356 134.522 533.354 132.709L529.853 134.646C530.936 136.602 532.115 138.449 533.391 140.184L536.613 137.815ZM533.357 132.715C532.246 130.692 531.283 128.539 530.47 126.257L526.702 127.598C527.584 130.074 528.632 132.421 529.85 134.64L533.357 132.715ZM527.511 112.3C527.297 109.99 527.19 107.587 527.19 105.091H523.19C523.19 107.702 523.302 110.228 523.528 112.668L527.511 112.3ZM527.19 105.091C527.19 102.585 527.3 100.175 527.517 97.8612L523.535 97.4867C523.305 99.934 523.19 102.469 523.19 105.091H527.19ZM530.541 83.8824C531.373 81.6 532.358 79.4524 533.495 77.4372L530.011 75.4719C528.762 77.6859 527.686 80.0336 526.783 82.5127L530.541 83.8824ZM533.496 77.434C534.514 75.6221 535.615 73.9223 536.798 72.3333L533.589 69.9448C532.3 71.6766 531.107 73.5205 530.009 75.4751L533.496 77.434ZM545.297 63.7991C546.902 62.6069 548.601 61.53 550.396 60.5684L548.507 57.0424C546.542 58.0953 544.676 59.2772 542.912 60.5884L545.297 63.7991ZM550.402 60.5651C552.225 59.5803 554.102 58.722 556.032 57.9896L554.613 54.2497C552.517 55.045 550.479 55.9771 548.501 57.0457L550.402 60.5651ZM568.08 55.1255C570.104 54.902 572.18 54.7898 574.309 54.7898V50.7898C572.04 50.7898 569.817 50.9094 567.641 51.1496L568.08 55.1255ZM574.309 54.7898C575.796 54.7898 577.251 54.8381 578.676 54.9343L578.946 50.9434C577.428 50.8409 575.882 50.7898 574.309 50.7898V54.7898ZM587.271 56.1771C588.697 56.5032 590.086 56.8865 591.44 57.3267L592.676 53.5227C591.207 53.0448 589.702 52.63 588.164 52.2779L587.271 56.1771ZM591.44 57.3267C592.696 57.7352 593.912 58.1886 595.089 58.6866L596.648 55.0029C595.362 54.4589 594.038 53.9656 592.676 53.5227L591.44 57.3267ZM601.905 62.3572C602.978 63.078 604.01 63.849 605 64.6702L607.553 61.5912C606.459 60.6836 605.32 59.8321 604.135 59.0365L601.905 62.3572ZM605.008 64.6763C605.983 65.4772 606.91 66.3246 607.788 67.2188L610.641 64.4158C609.663 63.4194 608.631 62.4758 607.546 61.585L605.008 64.6763ZM612.465 73.1215C613.133 74.1726 613.757 75.2699 614.337 76.414L617.905 74.6059C617.268 73.3493 616.58 72.1392 615.841 70.9761L612.465 73.1215ZM614.337 76.414C614.956 77.6364 615.513 78.9078 616.006 80.2289L619.753 78.8298C619.209 77.3726 618.593 75.9645 617.905 74.6059L614.337 76.414ZM618.134 88.3338C618.358 89.6911 618.531 91.0899 618.652 92.5306L622.638 92.1967C622.509 90.6542 622.323 89.1489 622.08 87.6813L618.134 88.3338ZM620.645 92.3636V96.3636H624.994L624.631 92.0297L620.645 92.3636ZM592.605 92.3636L588.62 92.7052L588.933 96.3636H592.605V92.3636ZM591.014 86.0497L587.351 87.6564L587.363 87.6831L587.375 87.7097L591.014 86.0497ZM587.534 81.1776L584.772 84.071L584.806 84.1031L584.84 84.1343L587.534 81.1776ZM582.214 77.9957L580.843 81.7532L580.869 81.7628L580.896 81.7721L582.214 77.9957ZM563.322 80.233L561.026 76.9576L561.018 76.9632L561.01 76.9689L563.322 80.233ZM556.064 89.9276L552.342 88.4622L552.337 88.4749L552.332 88.4877L556.064 89.9276ZM556.113 120.751L552.392 122.217L552.399 122.235L552.406 122.252L556.113 120.751ZM563.422 130.197L561.203 133.526L561.215 133.534L561.227 133.542L563.422 130.197ZM581.767 132.385L582.956 136.204L582.985 136.195L583.013 136.186L581.767 132.385ZM587.037 129.551L589.577 132.641L589.577 132.641L587.037 129.551ZM590.666 125.126L587.157 123.206L587.151 123.218L587.144 123.23L590.666 125.126ZM592.605 119.21L592.633 115.21L589.169 115.186L588.65 118.611L592.605 119.21ZM620.645 119.409L624.633 119.716L624.962 115.44L620.673 115.409L620.645 119.409ZM617.015 132.584L620.635 134.286L620.64 134.275L617.015 132.584ZM608.116 144.913L610.92 147.766L610.92 147.766L608.116 144.913ZM593.947 153.962L592.443 150.255L593.947 153.962ZM549.153 151.376L547.246 154.892L547.252 154.896L549.153 151.376ZM531.604 133.678L528.097 135.602L528.103 135.614L531.604 133.678ZM531.753 76.4545L535.237 78.4198L535.24 78.4135L531.753 76.4545ZM549.452 58.8054L551.34 62.3313L551.353 62.3248L549.452 58.8054ZM592.058 55.4247L593.295 51.6207L593.295 51.6207L592.058 55.4247ZM606.277 63.1307L603.723 66.2097L603.731 66.2159L603.738 66.222L606.277 63.1307ZM616.121 75.5099L612.553 77.3181L612.553 77.3181L616.121 75.5099ZM613.635 88.3636H609.635V96.3636H613.635V88.3636ZM599.615 96.3636H603.615V88.3636H599.615V96.3636ZM596.355 90.1044L595.719 86.1552L587.821 87.4268L588.457 91.376L596.355 90.1044ZM587.838 88.8711L589.14 92.6531L596.704 90.0482L595.402 86.2662L587.838 88.8711ZM593.825 82.7356L591.859 79.2517L584.892 83.1824L586.857 86.6663L593.825 82.7356ZM585.603 84.9063L588.259 87.8968L594.24 82.5837L591.584 79.5933L585.603 84.9063ZM588.751 76.9731L585.557 74.5658L580.742 80.9547L583.937 83.3621L588.751 76.9731ZM581.996 82.2138L585.632 83.881L588.966 76.6091L585.33 74.9418L581.996 82.2138ZM581.454 73.5867L577.573 72.6172L575.635 80.3787L579.515 81.3482L581.454 73.5867ZM576.632 80.9045L580.622 81.1858L581.185 73.2056L577.194 72.9243L576.632 80.9045ZM571.517 73.0623L567.546 73.5429L568.507 81.485L572.478 81.0044L571.517 73.0623ZM567.696 82.3146L571.327 80.6375L567.973 73.3746L564.341 75.0517L567.696 82.3146ZM558.155 79.3728L555.318 82.1936L560.96 87.8656L563.796 85.0449L558.155 79.3728ZM560.874 89.0302L562.765 85.5054L555.715 81.7236L553.824 85.2485L560.874 89.0302ZM551.025 92.6322L550.05 96.5115L557.808 98.4621L558.783 94.5829L551.025 92.6322ZM557.743 101.497L558.007 97.5056L550.025 96.9764L549.76 100.968L557.743 101.497ZM549.757 109.328L550.01 113.32L557.994 112.815L557.741 108.823L549.757 109.328ZM558.792 115.987L557.825 112.105L550.062 114.039L551.029 117.92L558.792 115.987ZM553.905 125.419L555.834 128.924L562.843 125.066L560.914 121.562L553.905 125.419ZM563.822 125.411L560.929 122.648L555.404 128.433L558.296 131.196L563.822 125.411ZM564.474 135.298L568.14 136.898L571.34 129.566L567.674 127.966L564.474 135.298ZM572.355 129.187L568.381 128.726L567.458 136.672L571.431 137.134L572.355 129.187ZM576.884 137.271L580.877 137.031L580.395 129.045L576.402 129.286L576.884 137.271ZM579.252 128.911L575.34 129.745L577.007 137.569L580.92 136.735L579.252 128.911ZM584.729 135.545L588.415 133.993L585.31 126.62L581.623 128.173L584.729 135.545ZM583.616 127.112L580.283 129.324L584.707 135.99L588.039 133.778L583.616 127.112ZM590.932 131.413L593.76 128.584L588.103 122.927L585.274 125.756L590.932 131.413ZM586.597 124.141L584.378 127.469L591.033 131.908L593.253 128.58L586.597 124.141ZM595.027 125.291L596.599 121.613L589.242 118.47L587.671 122.148L595.027 125.291ZM588.415 119.845L587.513 123.742L595.307 125.546L596.209 121.649L588.415 119.845ZM599.587 123.26L603.586 123.288L603.643 115.288L599.643 115.26L599.587 123.26ZM613.663 115.359L609.663 115.331L609.607 123.331L613.606 123.359L613.663 115.359ZM616.268 122.098L615.552 126.033L623.423 127.465L624.139 123.53L616.268 122.098ZM622.094 130.831L623.505 127.088L616.019 124.266L614.608 128.008L622.094 130.831ZM611.786 133.911L609.74 137.348L616.614 141.44L618.66 138.003L611.786 133.911ZM613.755 144.756L616.379 141.737L610.341 136.489L607.717 139.508L613.755 144.756ZM602.47 144.555L599.323 147.024L604.26 153.318L607.408 150.849L602.47 144.555ZM599.604 155.783L603.173 153.977L599.562 146.838L595.992 148.644L599.604 155.783ZM588.145 151.701L584.286 152.754L586.392 160.472L590.25 159.419L588.145 151.701ZM579.619 161.199L583.608 160.9L583.01 152.922L579.022 153.221L579.619 161.199ZM568.215 153.073L564.238 152.645L563.382 160.599L567.359 161.027L568.215 153.073ZM553.689 157.826L557.434 159.233L560.247 151.744L556.502 150.337L553.689 157.826ZM546.241 144.771L543.043 142.369L538.238 148.765L541.436 151.167L546.241 144.771ZM531.779 141.369L534.149 144.592L540.594 139.853L538.225 136.63L531.779 141.369ZM532.354 125.586L531.012 121.817L523.476 124.501L524.818 128.269L532.354 125.586ZM521.537 112.852L521.905 116.835L529.871 116.099L529.503 112.116L521.537 112.852ZM529.508 98.0484L529.883 94.0659L521.918 93.3171L521.543 97.2995L529.508 98.0484ZM524.904 81.8279L523.534 85.5861L531.051 88.3254L532.42 84.5672L524.904 81.8279ZM538.402 73.5276L540.791 70.3191L534.374 65.5419L531.985 68.7505L538.402 73.5276ZM541.719 58.983L538.508 61.3686L543.279 67.7901L546.49 65.4045L541.719 58.983ZM556.742 59.8596L560.481 58.4408L557.644 50.9609L553.904 52.3797L556.742 59.8596ZM567.422 49.1617L563.446 49.6007L564.324 57.5524L568.3 57.1134L567.422 49.1617ZM578.541 56.9298L582.532 57.1994L583.071 49.2176L579.08 48.948L578.541 56.9298ZM588.61 50.3283L584.71 49.4361L582.926 57.2346L586.825 58.1267L588.61 50.3283ZM594.31 60.5285L597.994 62.0873L601.111 54.7198L597.427 53.161L594.31 60.5285ZM605.25 57.3762L601.929 55.1461L597.469 61.7874L600.79 64.0175L605.25 57.3762ZM606.361 68.6203L609.164 71.4739L614.871 65.8679L612.068 63.0143L606.361 68.6203ZM617.529 69.9033L615.383 66.5274L608.631 70.8183L610.777 74.1942L617.529 69.9033ZM614.132 80.9284L615.531 84.6758L623.026 81.8777L621.627 78.1303L614.132 80.9284ZM624.053 87.3551L623.401 83.4087L615.508 84.7136L616.161 88.66L624.053 87.3551ZM620.645 88.3636H613.635V96.3636H620.645V88.3636ZM599.615 88.3636H592.605V96.3636H599.615V88.3636ZM596.59 92.022C596.535 91.3737 596.457 90.7344 596.355 90.1044L588.457 91.376C588.526 91.8038 588.58 92.2467 588.62 92.7052L596.59 92.022ZM595.402 86.2662C595.181 85.6262 594.932 85.0005 594.653 84.3897L587.375 87.7097C587.545 88.0824 587.699 88.4692 587.838 88.8711L595.402 86.2662ZM594.677 84.4431C594.42 83.8575 594.136 83.2881 593.825 82.7356L586.857 86.6663C587.034 86.9808 587.199 87.3105 587.351 87.6564L594.677 84.4431ZM591.584 79.5933C591.157 79.1128 590.705 78.6553 590.228 78.2208L584.84 84.1343C585.111 84.3813 585.365 84.6386 585.603 84.9063L591.584 79.5933ZM590.296 78.2841C589.807 77.8176 589.292 77.3806 588.751 76.9731L583.937 83.3621C584.231 83.584 584.509 83.8202 584.772 84.071L590.296 78.2841ZM585.33 74.9418C584.747 74.6746 584.148 74.4341 583.533 74.2194L580.896 81.7721C581.283 81.9073 581.649 82.0548 581.996 82.2138L585.33 74.9418ZM583.586 74.2383C582.893 73.9852 582.182 73.7685 581.454 73.5867L579.515 81.3482C579.981 81.4645 580.423 81.5999 580.843 81.7532L583.586 74.2383ZM577.194 72.9243C576.509 72.876 575.812 72.8523 575.105 72.8523V80.8523C575.634 80.8523 576.142 80.87 576.632 80.9045L577.194 72.9243ZM575.105 72.8523C573.881 72.8523 572.685 72.921 571.517 73.0623L572.478 81.0044C573.306 80.9042 574.181 80.8523 575.105 80.8523V72.8523ZM564.341 75.0517C563.178 75.589 562.072 76.2245 561.026 76.9576L565.618 83.5083C566.271 83.051 566.962 82.6533 567.696 82.3146L564.341 75.0517ZM561.01 76.9689C559.993 77.6893 559.041 78.4913 558.155 79.3728L563.796 85.0449C564.37 84.4745 564.982 83.9592 565.634 83.4971L561.01 76.9689ZM553.824 85.2485C553.276 86.2707 552.782 87.3429 552.342 88.4622L559.786 91.3929C560.119 90.5468 560.482 89.7602 560.874 89.0302L553.824 85.2485ZM552.332 88.4877C551.821 89.8116 551.387 91.1941 551.025 92.6322L558.783 94.5829C559.071 93.4388 559.41 92.368 559.796 91.3674L552.332 88.4877ZM549.76 100.968C549.671 102.305 549.628 103.679 549.628 105.091H557.628C557.628 103.844 557.666 102.647 557.743 101.497L549.76 100.968ZM549.628 105.091C549.628 106.547 549.67 107.959 549.757 109.328L557.741 108.823C557.666 107.634 557.628 106.39 557.628 105.091H549.628ZM551.029 117.92C551.403 119.421 551.855 120.855 552.392 122.217L559.835 119.286C559.438 118.276 559.088 117.178 558.792 115.987L551.029 117.92ZM552.406 122.252C552.853 123.357 553.352 124.414 553.905 125.419L560.914 121.562C560.523 120.852 560.158 120.082 559.821 119.251L552.406 122.252ZM558.296 131.196C559.199 132.058 560.168 132.836 561.203 133.526L565.64 126.869C564.996 126.44 564.391 125.955 563.822 125.411L558.296 131.196ZM561.227 133.542C562.257 134.218 563.34 134.803 564.474 135.298L567.674 127.966C566.95 127.65 566.265 127.279 565.616 126.853L561.227 133.542ZM571.431 137.134C572.563 137.265 573.722 137.33 574.906 137.33V129.33C574.011 129.33 573.161 129.281 572.355 129.187L571.431 137.134ZM574.906 137.33C575.576 137.33 576.235 137.31 576.884 137.271L576.402 129.286C575.922 129.315 575.423 129.33 574.906 129.33V137.33ZM580.92 136.735C581.614 136.587 582.293 136.411 582.956 136.204L580.577 128.566C580.158 128.696 579.717 128.812 579.252 128.911L580.92 136.735ZM583.013 136.186C583.598 135.994 584.171 135.781 584.729 135.545L581.623 128.173C581.273 128.321 580.906 128.458 580.521 128.584L583.013 136.186ZM588.039 133.778C588.572 133.424 589.085 133.045 589.577 132.641L584.496 126.461C584.218 126.691 583.924 126.908 583.616 127.112L588.039 133.778ZM589.577 132.641C590.049 132.253 590.501 131.843 590.932 131.413L585.274 125.756C585.029 126.001 584.77 126.236 584.496 126.461L589.577 132.641ZM593.253 128.58C593.588 128.077 593.9 127.558 594.188 127.023L587.144 123.23C586.973 123.548 586.791 123.851 586.597 124.141L593.253 128.58ZM594.175 127.046C594.487 126.477 594.771 125.892 595.027 125.291L587.671 122.148C587.514 122.514 587.343 122.867 587.157 123.206L594.175 127.046ZM596.209 121.649C596.349 121.046 596.465 120.432 596.56 119.809L588.65 118.611C588.585 119.037 588.507 119.448 588.415 119.845L596.209 121.649ZM592.577 123.21L599.587 123.26L599.643 115.26L592.633 115.21L592.577 123.21ZM613.606 123.359L620.616 123.409L620.673 115.409L613.663 115.359L613.606 123.359ZM616.656 119.102C616.58 120.091 616.451 121.089 616.268 122.098L624.139 123.53C624.37 122.257 624.535 120.986 624.633 119.716L616.656 119.102ZM614.608 128.008C614.249 128.96 613.844 129.921 613.391 130.892L620.64 134.275C621.176 133.128 621.661 131.98 622.094 130.831L614.608 128.008ZM613.396 130.882C612.912 131.909 612.376 132.919 611.786 133.911L618.66 138.003C619.382 136.79 620.04 135.551 620.635 134.286L613.396 130.882ZM607.717 139.508C606.965 140.373 606.164 141.223 605.313 142.06L610.92 147.766C611.916 146.787 612.861 145.784 613.755 144.756L607.717 139.508ZM605.313 142.06C604.424 142.933 603.477 143.765 602.47 144.555L607.408 150.849C608.644 149.88 609.815 148.852 610.92 147.766L605.313 142.06ZM595.992 148.644C594.863 149.216 593.68 149.753 592.443 150.255L595.452 157.668C596.884 157.086 598.269 156.458 599.604 155.783L595.992 148.644ZM592.443 150.255C591.079 150.809 589.647 151.291 588.145 151.701L590.25 159.419C592.046 158.929 593.781 158.346 595.452 157.668L592.443 150.255ZM579.022 153.221C577.505 153.335 575.934 153.392 574.309 153.392V161.392C576.122 161.392 577.892 161.328 579.619 161.199L579.022 153.221ZM574.309 153.392C572.217 153.392 570.186 153.285 568.215 153.073L567.359 161.027C569.627 161.271 571.944 161.392 574.309 161.392V153.392ZM556.502 150.337C554.627 149.633 552.811 148.806 551.054 147.857L547.252 154.896C549.329 156.018 551.475 156.995 553.689 157.826L556.502 150.337ZM551.061 147.861C549.36 146.938 547.754 145.908 546.241 144.771L541.436 151.167C543.269 152.544 545.206 153.785 547.246 154.892L551.061 147.861ZM538.225 136.63C537.107 135.111 536.067 133.482 535.104 131.741L528.103 135.614C529.225 137.642 530.45 139.562 531.779 141.369L538.225 136.63ZM535.11 131.753C534.053 129.827 533.133 127.772 532.354 125.586L524.818 128.269C525.734 130.841 526.826 133.286 528.097 135.602L535.11 131.753ZM529.503 112.116C529.295 109.871 529.19 107.53 529.19 105.091H521.19C521.19 107.759 521.305 110.347 521.537 112.852L529.503 112.116ZM529.19 105.091C529.19 102.643 529.297 100.296 529.508 98.0484L521.543 97.2995C521.307 99.8133 521.19 102.411 521.19 105.091H529.19ZM532.42 84.5672C533.216 82.3833 534.156 80.3356 535.237 78.4198L528.269 74.4893C526.964 76.8027 525.843 79.2504 524.904 81.8279L532.42 84.5672ZM535.24 78.4135C536.218 76.6728 537.272 75.0451 538.402 73.5276L531.985 68.7505C530.643 70.5538 529.403 72.4698 528.265 74.4956L535.24 78.4135ZM546.49 65.4045C548.014 64.2718 549.631 63.2473 551.34 62.3313L547.563 55.2795C545.512 56.3779 543.564 57.6123 541.719 58.983L546.49 65.4045ZM551.353 62.3248C553.098 61.3819 554.894 60.5604 556.742 59.8596L553.904 52.3797C551.724 53.2065 549.606 54.1755 547.55 55.286L551.353 62.3248ZM568.3 57.1134C570.248 56.8983 572.251 56.7898 574.309 56.7898V48.7898C571.969 48.7898 569.673 48.9131 567.422 49.1617L568.3 57.1134ZM574.309 56.7898C575.752 56.7898 577.163 56.8367 578.541 56.9298L579.08 48.948C577.516 48.8423 575.926 48.7898 574.309 48.7898V56.7898ZM586.825 58.1267C588.194 58.4399 589.526 58.8074 590.821 59.2287L593.295 51.6207C591.767 51.1239 590.205 50.6933 588.61 50.3283L586.825 58.1267ZM590.821 59.2287C592.025 59.6199 593.187 60.0534 594.31 60.5285L597.427 53.161C596.088 52.594 594.71 52.0808 593.295 51.6207L590.821 59.2287ZM600.79 64.0175C601.808 64.701 602.785 65.4317 603.723 66.2097L608.83 60.0516C607.684 59.101 606.49 58.2091 605.25 57.3762L600.79 64.0175ZM603.738 66.222C604.659 66.9779 605.533 67.7773 606.361 68.6203L612.068 63.0143C611.039 61.9668 609.955 60.975 608.815 60.0393L603.738 66.222ZM610.777 74.1942C611.409 75.1893 612.001 76.2302 612.553 77.3181L619.689 73.7018C619.023 72.389 618.304 71.1225 617.529 69.9033L610.777 74.1942ZM612.553 77.3181C613.138 78.4724 613.664 79.6754 614.132 80.9284L621.627 78.1303C621.057 76.6051 620.412 75.1285 619.689 73.7018L612.553 77.3181ZM616.161 88.66C616.376 89.9622 616.542 91.3078 616.659 92.6975L624.631 92.0297C624.497 90.4363 624.305 88.8778 624.053 87.3551L616.161 88.66ZM725.21 133.777L726.948 134.765L726.95 134.762L725.21 133.777ZM707.362 151.426L708.3 153.193L708.306 153.189L707.362 151.426ZM657.149 151.376L656.195 153.135L656.205 153.14L657.149 151.376ZM639.35 133.678L637.607 134.657L637.612 134.666L639.35 133.678ZM639.35 76.4545L637.61 75.4695L637.608 75.4719L639.35 76.4545ZM657.149 58.8054L658.09 60.5701L658.093 60.5686L657.149 58.8054ZM707.362 58.8054L706.418 60.5686L706.424 60.5718L707.362 58.8054ZM725.21 76.4545L723.469 77.4396L723.471 77.4428L725.21 76.4545ZM700.948 89.679L699.077 90.3861L699.081 90.395L699.084 90.4039L700.948 89.679ZM693.839 80.1335L692.69 81.7703L692.7 81.7773L692.71 81.7841L693.839 80.1335ZM670.721 80.1335L671.859 81.7785L671.862 81.776L670.721 80.1335ZM663.612 89.679L661.746 88.959L661.743 88.967L663.612 89.679ZM663.612 120.553L661.741 121.26L661.744 121.269L661.748 121.277L663.612 120.553ZM670.721 130.098L669.572 131.735L669.582 131.742L669.592 131.749L670.721 130.098ZM693.839 130.098L694.976 131.743L694.98 131.741L693.839 130.098ZM700.948 120.553L699.082 119.833L699.079 119.841L700.948 120.553ZM733.474 97.4815L733.286 95.4904L729.303 95.8678L729.492 97.8589L733.474 97.4815ZM726.444 83.8816L727.134 85.7589L730.889 84.3797L730.199 82.5023L726.444 83.8816ZM723.334 69.9284L722.133 68.3291L718.934 70.7308L720.135 72.3301L723.334 69.9284ZM711.56 63.7967L713.171 64.9824L715.542 61.7611L713.931 60.5754L711.56 63.7967ZM702.142 54.2471L700.27 53.543L698.862 57.2869L700.734 57.9911L702.142 54.2471ZM688.584 55.1256L690.572 55.3435L691.008 51.3673L689.02 51.1494L688.584 55.1256ZM675.567 51.1473L673.579 51.3634L674.011 55.34L675.999 55.1239L675.567 51.1473ZM663.798 57.9854L665.671 57.2832L664.267 53.5378L662.394 54.2399L663.798 57.9854ZM650.591 60.5831L648.982 61.772L651.36 64.9886L652.968 63.7998L650.591 60.5831ZM644.418 72.335L645.618 70.7345L642.417 68.3357L641.217 69.9362L644.418 72.335ZM634.38 82.5127L633.696 84.3919L637.454 85.7615L638.139 83.8824L634.38 82.5127ZM635.115 97.8611L635.302 95.8699L631.32 95.4955L631.132 97.4867L635.115 97.8611ZM631.135 112.684L631.323 114.675L635.306 114.297L635.117 112.306L631.135 112.684ZM638.148 126.259L637.462 124.38L633.705 125.751L634.39 127.629L638.148 126.259ZM641.23 140.197L642.431 141.797L645.629 139.395L644.428 137.795L641.23 140.197ZM652.986 146.355L651.382 145.16L648.993 148.368L650.597 149.563L652.986 146.355ZM662.394 155.942L664.267 156.644L665.671 152.899L663.798 152.196L662.394 155.942ZM675.999 155.058L674.011 154.842L673.579 158.818L675.567 159.034L675.999 155.058ZM689.014 159.036L691.002 158.82L690.57 154.843L688.582 155.059L689.014 159.036ZM700.734 152.218L698.86 152.917L700.258 156.665L702.132 155.966L700.734 152.218ZM713.924 149.643L715.533 148.455L713.158 145.237L711.549 146.424L713.924 149.643ZM720.129 137.892L718.926 139.489L722.121 141.896L723.324 140.298L720.129 137.892ZM730.196 127.713L730.885 125.836L727.129 124.459L726.441 126.337L730.196 127.713ZM729.491 112.334L729.303 114.326L733.285 114.703L733.473 112.712L729.491 112.334ZM705.26 101.043L705.133 99.0475L701.141 99.3013L701.268 101.297L705.26 101.043ZM700.182 93.9001L700.663 95.8413L704.545 94.8791L704.064 92.9378L700.182 93.9001ZM701.49 85.9925L700.563 84.2201L697.018 86.0734L697.945 87.8458L701.49 85.9925ZM694.765 83.4785L696.19 84.8821L698.997 82.0324L697.572 80.6289L694.765 83.4785ZM692.033 76.8027L690.215 75.9693L688.548 79.6054L690.366 80.4389L692.033 76.8027ZM685.109 79.0119L687.095 79.2476L687.567 75.2755L685.581 75.0398L685.109 79.0119ZM679.017 75.0408L677.031 75.2769L677.503 79.249L679.489 79.0129L679.017 75.0408ZM674.205 80.4441L676.025 79.6146L674.366 75.9749L672.546 76.8045L674.205 80.4441ZM666.993 80.6431L665.573 82.0517L668.39 84.8913L669.81 83.4826L666.993 80.6431ZM666.625 87.8598L667.558 86.0905L664.019 84.2254L663.087 85.9947L666.625 87.8598ZM660.516 92.9517L660.045 94.8952L663.932 95.8385L664.404 93.8949L660.516 92.9517ZM663.339 101.297L663.463 99.3011L659.471 99.0526L659.347 101.049L663.339 101.297ZM659.347 109.145L659.472 111.141L663.464 110.893L663.34 108.896L659.347 109.145ZM664.406 116.325L663.937 114.381L660.049 115.321L660.518 117.265L664.406 116.325ZM663.096 124.237L664.033 126.004L667.567 124.129L666.63 122.362L663.096 124.237ZM669.823 126.742L668.406 125.331L665.582 128.164L666.999 129.576L669.823 126.742ZM672.563 133.412L674.388 134.23L676.025 130.581L674.2 129.762L672.563 133.412ZM679.49 131.172L677.503 130.939L677.039 134.912L679.026 135.145L679.49 131.172ZM685.572 135.146L687.559 134.914L687.095 130.941L685.109 131.173L685.572 135.146ZM690.371 129.767L688.548 130.59L690.193 134.236L692.016 133.414L690.371 129.767ZM697.566 129.59L698.988 128.183L696.175 125.34L694.753 126.746L697.566 129.59ZM697.941 122.376L697.009 124.146L700.549 126.009L701.481 124.239L697.941 122.376ZM704.062 117.279L704.542 115.337L700.658 114.378L700.179 116.32L704.062 117.279ZM701.268 108.896L701.141 110.892L705.133 111.147L705.26 109.151L701.268 108.896ZM733.822 105.091C733.822 102.467 733.706 99.9304 733.474 97.4815L729.492 97.8589C729.712 100.174 729.822 102.584 729.822 105.091H733.822ZM730.199 82.5023C729.289 80.0249 728.206 77.6788 726.948 75.4663L723.471 77.4428C724.615 79.4562 725.607 81.6017 726.444 83.8816L730.199 82.5023ZM726.95 75.4695C725.842 73.5108 724.637 71.6633 723.334 69.9284L720.135 72.3301C721.33 73.9217 722.442 75.6244 723.469 77.4396L726.95 75.4695ZM713.931 60.5754C712.155 59.2679 710.277 58.0891 708.3 57.039L706.424 60.5718C708.232 61.532 709.944 62.607 711.56 63.7967L713.931 60.5754ZM708.306 57.0422C706.31 55.9739 704.256 55.0421 702.142 54.2471L700.734 57.9911C702.683 58.724 704.577 59.5831 706.418 60.5686L708.306 57.0422ZM689.02 51.1494C686.829 50.9094 684.59 50.7898 682.305 50.7898V54.7898C684.45 54.7898 686.543 54.902 688.584 55.1256L689.02 51.1494ZM682.305 50.7898C680.01 50.7898 677.764 50.9086 675.567 51.1473L675.999 55.1239C678.047 54.9015 680.149 54.7898 682.305 54.7898V50.7898ZM662.394 54.2399C660.269 55.0364 658.206 55.9706 656.205 57.0422L658.093 60.5686C659.938 59.5806 661.84 58.7196 663.798 57.9854L662.394 54.2399ZM656.207 57.0407C654.235 58.0925 652.363 59.2733 650.591 60.5831L652.968 63.7998C654.58 62.6081 656.287 61.5315 658.09 60.5701L656.207 57.0407ZM641.217 69.9362C639.919 71.6688 638.717 73.5137 637.61 75.4695L641.091 77.4396C642.117 75.6263 643.227 73.9252 644.418 72.335L641.217 69.9362ZM637.608 75.4719C636.359 77.6859 635.284 80.0336 634.38 82.5127L638.139 83.8824C638.97 81.6 639.955 79.4524 641.092 77.4372L637.608 75.4719ZM631.132 97.4867C630.902 99.934 630.788 102.469 630.788 105.091H634.788C634.788 102.585 634.897 100.175 635.115 97.8611L631.132 97.4867ZM630.788 105.091C630.788 107.707 630.903 110.238 631.135 112.684L635.117 112.306C634.898 109.995 634.788 107.59 634.788 105.091H630.788ZM634.39 127.629C635.291 130.1 636.363 132.443 637.607 134.657L641.094 132.698C639.96 130.68 638.978 128.534 638.148 126.259L634.39 127.629ZM637.612 134.666C638.722 136.619 639.928 138.463 641.23 140.197L644.428 137.795C643.232 136.202 642.119 134.501 641.089 132.689L637.612 134.666ZM650.597 149.563C652.364 150.878 654.23 152.069 656.195 153.135L658.102 149.618C656.302 148.642 654.597 147.554 652.986 146.355L650.597 149.563ZM656.205 153.14C658.206 154.211 660.269 155.145 662.394 155.942L663.798 152.196C661.84 151.462 659.938 150.601 658.093 149.613L656.205 153.14ZM675.567 159.034C677.764 159.273 680.01 159.392 682.305 159.392V155.392C680.149 155.392 678.047 155.28 675.999 155.058L675.567 159.034ZM682.305 159.392C684.588 159.392 686.825 159.274 689.014 159.036L688.582 155.059C686.542 155.281 684.45 155.392 682.305 155.392V159.392ZM702.132 155.966C704.247 155.177 706.303 154.253 708.3 153.193L706.424 149.66C704.581 150.638 702.685 151.491 700.734 152.218L702.132 155.966ZM708.306 153.189C710.279 152.133 712.152 150.951 713.924 149.643L711.549 146.424C709.934 147.616 708.224 148.696 706.418 149.663L708.306 153.189ZM723.324 140.298C724.63 138.565 725.838 136.72 726.948 134.765L723.471 132.789C722.441 134.6 721.327 136.301 720.129 137.892L723.324 140.298ZM726.95 134.762C728.206 132.544 729.287 130.194 730.196 127.713L726.441 126.337C725.604 128.62 724.613 130.771 723.469 132.792L726.95 134.762ZM733.473 112.712C733.706 110.259 733.822 107.718 733.822 105.091H729.822C729.822 107.601 729.711 110.015 729.491 112.334L733.473 112.712ZM705.384 105.091C705.384 103.697 705.343 102.348 705.26 101.043L701.268 101.297C701.346 102.512 701.384 103.776 701.384 105.091H705.384ZM704.064 92.9378C703.718 91.5396 703.301 90.211 702.812 88.9541L699.084 90.4039C699.506 91.4891 699.873 92.6538 700.182 93.9001L704.064 92.9378ZM702.819 88.9719C702.424 87.9268 701.981 86.9331 701.49 85.9925L697.945 87.8458C698.357 88.6348 698.735 89.481 699.077 90.3861L702.819 88.9719ZM697.572 80.6289C696.766 79.8346 695.898 79.1189 694.968 78.4829L692.71 81.7841C693.442 82.2852 694.127 82.8496 694.765 83.4785L697.572 80.6289ZM694.988 78.4967C694.059 77.8444 693.074 77.2797 692.033 76.8027L690.366 80.4389C691.188 80.8158 691.962 81.2596 692.69 81.7703L694.988 78.4967ZM685.581 75.0398C684.522 74.9141 683.43 74.8523 682.305 74.8523V78.8523C683.284 78.8523 684.218 78.9061 685.109 79.0119L685.581 75.0398ZM682.305 74.8523C681.176 74.8523 680.08 74.9145 679.017 75.0408L679.489 79.0129C680.385 78.9064 681.323 78.8523 682.305 78.8523V74.8523ZM672.546 76.8045C671.503 77.2798 670.514 77.842 669.58 78.491L671.862 81.776C672.598 81.2651 673.378 80.8212 674.205 80.4441L672.546 76.8045ZM669.584 78.4885C668.66 79.1272 667.796 79.8459 666.993 80.6431L669.81 83.4826C670.448 82.8493 671.131 82.2817 671.859 81.7785L669.584 78.4885ZM663.087 85.9947C662.594 86.9306 662.147 87.9192 661.746 88.9591L665.478 90.3989C665.827 89.4946 666.21 88.6488 666.625 87.8598L663.087 85.9947ZM661.743 88.967C661.264 90.2242 660.856 91.5531 660.516 92.9517L664.404 93.8949C664.707 92.6458 665.066 91.4785 665.481 90.391L661.743 88.967ZM659.347 101.049C659.266 102.352 659.225 103.699 659.225 105.091H663.225C663.225 103.776 663.263 102.512 663.339 101.297L659.347 101.049ZM659.225 105.091C659.225 106.486 659.266 107.838 659.347 109.145L663.34 108.896C663.264 107.677 663.225 106.409 663.225 105.091H659.225ZM660.518 117.265C660.857 118.665 661.264 119.998 661.741 121.26L665.483 119.845C665.069 118.75 664.709 117.578 664.406 116.325L660.518 117.265ZM661.748 121.277C662.151 122.315 662.6 123.301 663.096 124.237L666.63 122.362C666.211 121.573 665.826 120.729 665.476 119.828L661.748 121.277ZM666.999 129.576C667.798 130.371 668.655 131.091 669.572 131.735L671.87 128.461C671.143 127.95 670.46 127.378 669.823 126.742L666.999 129.576ZM669.592 131.749C670.528 132.389 671.519 132.944 672.563 133.412L674.2 129.762C673.37 129.39 672.587 128.952 671.85 128.447L669.592 131.749ZM679.026 135.145C680.086 135.268 681.179 135.33 682.305 135.33V131.33C681.324 131.33 680.386 131.276 679.49 131.172L679.026 135.145ZM682.305 135.33C683.427 135.33 684.517 135.269 685.572 135.146L685.109 131.173C684.218 131.277 683.283 131.33 682.305 131.33V135.33ZM692.016 133.414C693.058 132.944 694.045 132.387 694.976 131.743L692.701 128.453C691.972 128.957 691.196 129.395 690.371 129.767L692.016 133.414ZM694.98 131.741C695.902 131.1 696.765 130.383 697.566 129.59L694.753 126.746C694.115 127.378 693.43 127.947 692.698 128.455L694.98 131.741ZM701.481 124.239C701.975 123.299 702.42 122.307 702.817 121.265L699.079 119.841C698.736 120.743 698.356 121.587 697.941 122.376L701.481 124.239ZM702.814 121.272C703.301 120.011 703.716 118.679 704.062 117.279L700.179 116.32C699.87 117.57 699.504 118.74 699.082 119.833L702.814 121.272ZM705.26 109.151C705.343 107.841 705.384 106.488 705.384 105.091H701.384C701.384 106.409 701.345 107.678 701.268 108.896L705.26 109.151ZM725.21 133.777L728.687 135.754L728.691 135.747L725.21 133.777ZM707.362 151.426L709.238 154.959L709.25 154.953L707.362 151.426ZM657.149 151.376L655.242 154.893L655.251 154.898L655.261 154.903L657.149 151.376ZM639.35 133.678L635.863 135.636L635.868 135.645L635.873 135.654L639.35 133.678ZM639.35 76.4545L635.869 74.4844L635.866 74.4893L639.35 76.4545ZM657.149 58.8054L659.031 62.3348L659.037 62.3318L657.149 58.8054ZM707.362 58.8054L705.474 62.3318L705.486 62.3383L707.362 58.8054ZM725.21 76.4545L721.729 78.4247L721.732 78.4311L725.21 76.4545ZM700.948 89.679L697.207 91.0931L697.213 91.111L697.22 91.1288L700.948 89.679ZM693.839 80.1335L691.54 83.4072L691.56 83.4211L691.58 83.4347L693.839 80.1335ZM670.721 80.1335L672.996 83.4236L673.003 83.4185L670.721 80.1335ZM663.612 89.679L659.88 88.2391L659.877 88.2471L659.874 88.255L663.612 89.679ZM663.612 120.553L659.87 121.967L659.877 121.985L659.884 122.002L663.612 120.553ZM670.721 130.098L668.423 133.372L668.442 133.386L668.462 133.399L670.721 130.098ZM693.839 130.098L696.114 133.388L696.121 133.383L693.839 130.098ZM700.948 120.553L697.216 119.113L697.213 119.121L697.21 119.129L700.948 120.553ZM735.465 97.2928L735.088 93.3106L727.124 94.0655L727.501 98.0476L735.465 97.2928ZM724.567 84.5712L725.946 88.3259L733.456 85.5674L732.076 81.8127L724.567 84.5712ZM724.933 68.7275L722.532 65.5288L716.134 70.3323L718.536 73.531L724.933 68.7275ZM710.374 65.4074L713.596 67.7787L718.338 61.3361L715.117 58.9648L710.374 65.4074ZM702.846 52.3752L699.102 50.9669L696.286 58.4548L700.03 59.863L702.846 52.3752ZM688.366 57.1137L692.342 57.5495L693.214 49.5971L689.237 49.1613L688.366 57.1137ZM675.351 49.159L671.375 49.5911L672.239 57.5443L676.215 57.1122L675.351 49.159ZM664.5 59.8581L668.246 58.4538L665.437 50.963L661.692 52.3672L664.5 59.8581ZM649.402 58.9748L646.185 61.3525L650.94 67.7857L654.157 65.4081L649.402 58.9748ZM646.019 73.5344L648.418 70.3335L642.016 65.5359L639.617 68.7368L646.019 73.5344ZM632.501 81.8279L631.132 85.5861L638.648 88.3254L640.018 84.5672L632.501 81.8279ZM637.106 98.0484L637.48 94.0659L629.516 93.3171L629.141 97.2995L637.106 98.0484ZM629.144 112.872L629.521 116.855L637.485 116.1L637.108 112.118L629.144 112.872ZM640.027 125.573L638.656 121.815L631.14 124.557L632.511 128.315L640.027 125.573ZM639.631 141.399L642.033 144.597L648.43 139.793L646.028 136.594L639.631 141.399ZM654.181 144.751L650.973 142.362L646.195 148.778L649.403 151.167L654.181 144.751ZM661.692 157.815L665.437 159.219L668.246 151.728L664.5 150.324L661.692 157.815ZM676.215 153.07L672.239 152.638L671.375 160.591L675.351 161.023L676.215 153.07ZM689.23 161.024L693.207 160.592L692.343 152.639L688.366 153.071L689.23 161.024ZM700.036 150.344L696.288 151.742L699.083 159.238L702.831 157.84L700.036 150.344ZM715.112 151.252L718.33 148.876L713.579 142.44L710.361 144.815L715.112 151.252ZM718.531 136.688L716.125 139.884L722.515 144.697L724.921 141.501L718.531 136.688ZM732.074 128.402L733.451 124.646L725.939 121.893L724.563 125.648L732.074 128.402ZM727.5 112.146L727.123 116.128L735.087 116.883L735.465 112.901L727.5 112.146ZM707.256 100.917L707.002 96.9246L699.019 97.4322L699.272 101.424L707.256 100.917ZM698.24 94.3812L699.203 98.2637L706.968 96.3392L706.006 92.4567L698.24 94.3812ZM703.262 85.0659L701.409 81.5211L694.319 85.2276L696.173 88.7724L703.262 85.0659ZM693.362 84.9034L696.212 87.7104L701.826 82.0111L698.976 79.204L693.362 84.9034ZM692.866 74.9847L689.23 73.3178L685.897 80.59L689.533 82.2569L692.866 74.9847ZM684.874 80.998L688.846 81.4694L689.789 73.5252L685.817 73.0537L684.874 80.998ZM678.781 73.0548L674.809 73.527L675.753 81.471L679.726 80.9989L678.781 73.0548ZM675.035 82.264L678.674 80.6049L675.356 73.3255L671.717 74.9846L675.035 82.264ZM665.584 79.2233L662.744 82.0406L668.379 87.7197L671.218 84.9024L665.584 79.2233ZM668.395 88.7923L670.26 85.2537L663.183 81.5236L661.318 85.0622L668.395 88.7923ZM658.573 92.48L657.629 96.3672L665.404 98.2537L666.347 94.3665L658.573 92.48ZM665.335 101.422L665.584 97.4292L657.599 96.9323L657.351 100.925L665.335 101.422ZM657.351 109.27L657.6 113.262L665.585 112.764L665.336 108.772L657.351 109.27ZM666.35 115.855L665.411 111.967L657.635 113.847L658.574 117.735L666.35 115.855ZM661.329 125.174L663.203 128.708L670.271 124.959L668.397 121.425L661.329 125.174ZM671.234 125.325L668.401 122.502L662.754 128.169L665.588 130.993L671.234 125.325ZM671.745 135.237L675.395 136.874L678.668 129.574L675.019 127.937L671.745 135.237ZM679.722 129.185L675.749 128.721L674.82 136.667L678.793 137.131L679.722 129.185ZM685.804 137.132L689.777 136.668L688.85 128.722L684.877 129.186L685.804 137.132ZM689.549 127.944L685.903 129.589L689.192 136.881L692.838 135.237L689.549 127.944ZM698.972 131.012L701.816 128.199L696.19 122.511L693.346 125.324L698.972 131.012ZM696.171 121.445L694.308 124.985L701.388 128.71L703.25 125.17L696.171 121.445ZM706.004 117.758L706.963 113.875L699.196 111.957L698.237 115.84L706.004 117.758ZM699.272 108.769L699.018 112.761L707.001 113.27L707.256 109.278L699.272 108.769ZM735.822 105.091C735.822 102.409 735.704 99.8087 735.465 97.2928L727.501 98.0476C727.714 100.295 727.822 102.643 727.822 105.091H735.822ZM732.076 81.8127C731.13 79.2364 730.001 76.79 728.687 74.478L721.732 78.4311C722.82 80.345 723.766 82.3902 724.567 84.5712L732.076 81.8127ZM728.691 74.4844C727.542 72.454 726.29 70.5341 724.933 68.7275L718.536 73.531C719.677 75.0509 720.742 76.6813 721.729 78.4247L728.691 74.4844ZM715.117 58.9648C713.261 57.5983 711.3 56.3677 709.238 55.2725L705.486 62.3383C707.209 63.2534 708.838 64.2766 710.374 65.4074L715.117 58.9648ZM709.25 55.279C707.177 54.1693 705.042 53.2012 702.846 52.3752L700.03 59.863C701.896 60.5649 703.71 61.3876 705.474 62.3318L709.25 55.279ZM689.237 49.1613C686.971 48.913 684.66 48.7898 682.305 48.7898V56.7898C684.381 56.7898 686.401 56.8984 688.366 57.1137L689.237 49.1613ZM682.305 48.7898C679.941 48.7898 677.623 48.9122 675.351 49.159L676.215 57.1122C678.188 56.8979 680.218 56.7898 682.305 56.7898V48.7898ZM661.692 52.3672C659.484 53.1948 657.34 54.1656 655.261 55.279L659.037 62.3318C660.804 61.3856 662.625 60.5612 664.5 59.8581L661.692 52.3672ZM655.266 55.276C653.209 56.3731 651.254 57.6059 649.402 58.9748L654.157 65.4081C655.689 64.2755 657.313 63.2509 659.031 62.3348L655.266 55.276ZM639.617 68.7368C638.265 70.5407 637.016 72.4574 635.869 74.4844L642.831 78.4247C643.817 76.6825 644.88 75.0534 646.019 73.5344L639.617 68.7368ZM635.866 74.4893C634.561 76.8027 633.441 79.2504 632.501 81.8279L640.018 84.5672C640.814 82.3833 641.754 80.3356 642.834 78.4198L635.866 74.4893ZM629.141 97.2995C628.905 99.8133 628.788 102.411 628.788 105.091H636.788C636.788 102.643 636.895 100.296 637.106 98.0484L629.141 97.2995ZM628.788 105.091C628.788 107.766 628.906 110.36 629.144 112.872L637.108 112.118C636.895 109.873 636.788 107.531 636.788 105.091H628.788ZM632.511 128.315C633.448 130.883 634.564 133.325 635.863 135.636L642.838 131.719C641.759 129.798 640.821 127.751 640.027 125.573L632.511 128.315ZM635.873 135.654C637.023 137.678 638.275 139.594 639.631 141.399L646.028 136.594C644.884 135.072 643.817 133.442 642.828 131.701L635.873 135.654ZM649.403 151.167C651.247 152.541 653.194 153.782 655.242 154.893L659.055 147.86C657.338 146.929 655.714 145.892 654.181 144.751L649.403 151.167ZM655.261 154.903C657.34 156.016 659.484 156.987 661.692 157.815L664.5 150.324C662.625 149.621 660.804 148.796 659.037 147.85L655.261 154.903ZM675.351 161.023C677.623 161.27 679.941 161.392 682.305 161.392V153.392C680.218 153.392 678.188 153.284 676.215 153.07L675.351 161.023ZM682.305 161.392C684.657 161.392 686.966 161.27 689.23 161.024L688.366 153.071C686.401 153.284 684.381 153.392 682.305 153.392V161.392ZM702.831 157.84C705.028 157.021 707.164 156.06 709.238 154.959L705.486 147.893C703.72 148.831 701.904 149.647 700.036 150.344L702.831 157.84ZM709.25 154.953C711.306 153.852 713.261 152.618 715.112 151.252L710.361 144.815C708.825 145.949 707.197 146.977 705.474 147.9L709.25 154.953ZM724.921 141.501C726.281 139.697 727.536 137.78 728.687 135.754L721.732 131.8C720.743 133.54 719.676 135.169 718.531 136.688L724.921 141.501ZM728.691 135.747C730.002 133.43 731.129 130.98 732.074 128.402L724.563 125.648C723.762 127.834 722.816 129.885 721.729 131.807L728.691 135.747ZM735.465 112.901C735.704 110.38 735.822 107.777 735.822 105.091H727.822C727.822 107.542 727.714 109.893 727.5 112.146L735.465 112.901ZM707.384 105.091C707.384 103.658 707.342 102.266 707.256 100.917L699.272 101.424C699.347 102.593 699.384 103.815 699.384 105.091H707.384ZM706.006 92.4567C705.64 90.9825 705.199 89.5719 704.676 88.2292L697.22 91.1288C697.609 92.1282 697.95 93.2109 698.24 94.3812L706.006 92.4567ZM704.69 88.2648C704.269 87.1496 703.793 86.0822 703.262 85.0659L696.173 88.7724C696.545 89.4857 696.891 90.2582 697.207 91.0931L704.69 88.2648ZM698.976 79.204C698.086 78.3271 697.126 77.5357 696.098 76.8323L691.58 83.4347C692.214 83.8683 692.807 84.357 693.362 84.9034L698.976 79.204ZM696.137 76.8599C695.108 76.1368 694.016 75.5117 692.866 74.9847L689.533 82.2569C690.246 82.5838 690.914 82.9671 691.54 83.4072L696.137 76.8599ZM685.817 73.0537C684.675 72.9182 683.503 72.8523 682.305 72.8523V80.8523C683.21 80.8523 684.066 80.9021 684.874 80.998L685.817 73.0537ZM682.305 72.8523C681.103 72.8523 679.928 72.9186 678.781 73.0548L679.726 80.9989C680.538 80.9024 681.397 80.8523 682.305 80.8523V72.8523ZM671.717 74.9846C670.566 75.5091 669.472 76.1304 668.439 76.8485L673.003 83.4185C673.639 82.9767 674.315 82.5919 675.035 82.264L671.717 74.9846ZM668.446 76.8435C667.424 77.5499 666.47 78.3442 665.584 79.2233L671.218 84.9024C671.774 84.351 672.366 83.859 672.996 83.4235L668.446 76.8435ZM661.318 85.0622C660.786 86.0715 660.307 87.1315 659.88 88.2391L667.344 91.1188C667.666 90.2823 668.018 89.5079 668.395 88.7923L661.318 85.0622ZM659.874 88.255C659.362 89.597 658.93 91.0067 658.573 92.48L666.347 94.3665C666.632 93.1921 666.968 92.1057 667.35 91.103L659.874 88.255ZM657.351 100.925C657.267 102.272 657.225 103.661 657.225 105.091H665.225C665.225 103.815 665.262 102.592 665.335 101.422L657.351 100.925ZM657.225 105.091C657.225 106.525 657.267 107.918 657.351 109.27L665.336 108.772C665.262 107.597 665.225 106.371 665.225 105.091H657.225ZM658.574 117.735C658.931 119.209 659.361 120.621 659.87 121.967L667.353 119.138C666.971 118.127 666.635 117.034 666.35 115.855L658.574 117.735ZM659.884 122.002C660.313 123.107 660.794 124.165 661.329 125.174L668.397 121.425C668.017 120.709 667.664 119.936 667.34 119.103L659.884 122.002ZM665.588 130.993C666.466 131.868 667.412 132.662 668.423 133.372L673.02 126.824C672.387 126.38 671.792 125.881 671.234 125.325L665.588 130.993ZM668.462 133.399C669.498 134.108 670.593 134.72 671.745 135.237L675.019 127.937C674.296 127.613 673.617 127.233 672.98 126.797L668.462 133.399ZM678.793 137.131C679.936 137.265 681.107 137.33 682.305 137.33V129.33C681.396 129.33 680.536 129.28 679.722 129.185L678.793 137.131ZM682.305 137.33C683.499 137.33 684.666 137.265 685.804 137.132L684.877 129.186C684.068 129.281 683.211 129.33 682.305 129.33V137.33ZM692.838 135.237C693.989 134.718 695.082 134.102 696.114 133.388L691.564 126.808C690.936 127.242 690.265 127.621 689.549 127.944L692.838 135.237ZM696.121 133.383C697.139 132.676 698.09 131.885 698.972 131.012L693.346 125.324C692.79 125.875 692.194 126.371 691.557 126.813L696.121 133.383ZM703.25 125.17C703.785 124.155 704.262 123.089 704.686 121.977L697.21 119.129C696.893 119.96 696.546 120.732 696.171 121.445L703.25 125.17ZM704.68 121.992C705.2 120.646 705.64 119.233 706.004 117.758L698.237 115.84C697.947 117.015 697.605 118.105 697.216 119.113L704.68 121.992ZM707.256 109.278C707.342 107.923 707.384 106.527 707.384 105.091H699.384C699.384 106.37 699.346 107.596 699.272 108.769L707.256 109.278ZM744.611 156H742.611V158H744.611V156ZM744.611 54.1818V52.1818H742.611V54.1818H744.611ZM808.397 58.6562L807.465 60.4261L807.465 60.4261L808.397 58.6562ZM821.621 71.2344L823.349 70.2273L823.349 70.2273L821.621 71.2344ZM821.472 109.118L819.764 108.078L819.759 108.086L821.472 109.118ZM807.9 121.447L807.013 119.655L807.009 119.657L807.9 121.447ZM761.316 125.773H759.316V127.773H761.316V125.773ZM761.316 104.295V102.295H759.316V104.295H761.316ZM790.3 102.605L791.184 104.399L791.195 104.394L790.3 102.605ZM795.62 97.6832L793.9 96.6622L793.894 96.6722L793.888 96.6822L795.62 97.6832ZM795.62 82.7188L793.895 83.7316L793.905 83.7478L793.915 83.7639L795.62 82.7188ZM790.3 77.946L789.416 79.74L789.432 79.7477L789.447 79.7551L790.3 77.946ZM772.253 76.2557V74.2557H770.253V76.2557H772.253ZM772.253 156V158H774.253V156H772.253ZM746.611 147.515V145.515H742.611V147.515H746.611ZM742.611 130.545V132.545H746.611V130.545H742.611ZM746.611 113.576V111.576H742.611V113.576H746.611ZM742.611 96.6061V98.6061H746.611V96.6061H742.611ZM746.611 79.6364V77.6364H742.611V79.6364H746.611ZM742.611 62.6667V64.6667H746.611V62.6667H742.611ZM755.599 56.1818H757.599V52.1818H755.599V56.1818ZM777.573 52.1818H775.573V56.1818H777.573V52.1818ZM793.493 56.4152L795.484 56.6095L795.872 52.6284L793.882 52.4341L793.493 56.4152ZM804.367 54.7163L802.482 54.0462L801.142 57.815L803.027 58.4851L804.367 54.7163ZM811.183 62.7007L812.815 63.8566L815.127 60.5922L813.494 59.4364L811.183 62.7007ZM820.597 66.1744L819.359 64.603L816.217 67.0776L817.454 68.649L820.597 66.1744ZM821.914 76.4085L822.649 78.2686L826.369 76.7992L825.634 74.939L821.914 76.4085ZM828.073 85.0303L827.857 83.042L823.881 83.4736L824.097 85.462L828.073 85.0303ZM824.091 94.8991L823.871 96.8869L827.847 97.3276L828.067 95.3398L824.091 94.8991ZM825.551 105.458L826.308 103.607L822.606 102.092L821.848 103.944L825.551 105.458ZM817.25 111.645L815.981 113.191L819.073 115.729L820.342 114.183L817.25 111.645ZM813.036 120.788L814.698 119.675L812.473 116.351L810.811 117.464L813.036 120.788ZM802.421 121.548L800.525 122.183L801.794 125.976L803.691 125.342L802.421 121.548ZM792.986 127.532L794.978 127.349L794.613 123.366L792.621 123.548L792.986 127.532ZM781.003 123.773H779.003V127.773H781.003V123.773ZM767.878 127.773H769.878V123.773H767.878V127.773ZM763.316 120.403V118.403H759.316V120.403H763.316ZM759.316 109.665V111.665H763.316V109.665H759.316ZM766.486 106.295H768.486V102.295H766.486V106.295ZM776.827 102.295H774.827V106.295H776.827V102.295ZM784.3 106.202L786.293 106.034L785.957 102.048L783.964 102.216L784.3 106.202ZM787.708 101.498L785.804 102.11L787.028 105.918L788.932 105.306L787.708 101.498ZM793.009 103.335L794.665 102.213L792.422 98.9018L790.766 100.023L793.009 103.335ZM793.023 97.9509L791.773 99.5124L794.896 102.012L796.146 100.45L793.023 97.9509ZM798.341 96.6694L799.083 94.8121L795.369 93.3281L794.627 95.1854L798.341 96.6694ZM795.418 91.9159L795.202 93.9042L799.179 94.336L799.395 92.3477L795.418 91.9159ZM799.398 88.0193L799.186 86.0305L795.208 86.4545L795.42 88.4433L799.398 88.0193ZM794.64 85.2062L795.389 87.0606L799.098 85.5623L798.348 83.7079L794.64 85.2062ZM796.133 79.9638L794.866 78.4159L791.77 80.949L793.037 82.4969L796.133 79.9638ZM790.797 80.5035L792.475 81.5922L794.652 78.2366L792.975 77.148L790.797 80.5035ZM788.932 75.245L787.028 74.6331L785.804 78.4413L787.708 79.0532L788.932 75.245ZM783.964 78.3355L785.957 78.5035L786.293 74.5176L784.3 74.3496L783.964 78.3355ZM779.562 74.2557H777.562V78.2557H779.562V74.2557ZM774.689 78.2557H776.689V74.2557H774.689V78.2557ZM770.253 86.2237V88.2237H774.253V86.2237H770.253ZM774.253 106.16V104.16H770.253V106.16H774.253ZM770.253 126.096V128.096H774.253V126.096H770.253ZM774.253 146.032V144.032H770.253V146.032H774.253ZM765.343 154H763.343V158H765.343V154ZM751.522 158H753.522V154H751.522V158ZM746.611 156V147.515H742.611V156H746.611ZM746.611 130.545V113.576H742.611V130.545H746.611ZM746.611 96.6061V79.6364H742.611V96.6061H746.611ZM746.611 62.6667V54.1818H742.611V62.6667H746.611ZM744.611 56.1818H755.599V52.1818H744.611V56.1818ZM777.573 56.1818H788.56V52.1818H777.573V56.1818ZM788.56 56.1818C790.259 56.1818 791.903 56.2599 793.493 56.4152L793.882 52.4341C792.156 52.2656 790.382 52.1818 788.56 52.1818V56.1818ZM803.027 58.4851C804.572 59.0345 806.051 59.6817 807.465 60.4261L809.328 56.8864C807.742 56.0514 806.088 55.3282 804.367 54.7163L803.027 58.4851ZM807.465 60.4261C808.78 61.118 810.019 61.8764 811.183 62.7007L813.494 59.4364C812.182 58.507 810.793 57.6573 809.328 56.8864L807.465 60.4261ZM817.454 68.649C818.339 69.773 819.152 70.9701 819.893 72.2415L823.349 70.2273C822.517 68.7992 821.6 67.4478 820.597 66.1744L817.454 68.649ZM819.893 72.2415C820.668 73.5703 821.341 74.9589 821.914 76.4085L825.634 74.939C824.988 73.3036 824.227 71.7327 823.349 70.2273L819.893 72.2415ZM824.097 85.462C824.261 86.9797 824.344 88.5508 824.344 90.1761H828.344C828.344 88.4147 828.254 86.6992 828.073 85.0303L824.097 85.462ZM824.344 90.1761C824.344 91.8079 824.26 93.3819 824.091 94.8991L828.067 95.3398C828.252 93.6678 828.344 91.9464 828.344 90.1761H824.344ZM821.848 103.944C821.258 105.387 820.563 106.765 819.764 108.078L823.181 110.158C824.091 108.662 824.881 107.095 825.551 105.458L821.848 103.944ZM819.759 108.086C818.999 109.348 818.162 110.534 817.25 111.645L820.342 114.183C821.379 112.919 822.327 111.574 823.185 110.15L819.759 108.086ZM810.811 117.464C809.622 118.26 808.357 118.99 807.013 119.655L808.786 123.24C810.28 122.502 811.697 121.685 813.036 120.788L810.811 117.464ZM807.009 119.657C805.549 120.382 804.02 121.013 802.421 121.548L803.691 125.342C805.46 124.75 807.16 124.049 808.79 123.238L807.009 119.657ZM792.621 123.548C790.992 123.698 789.307 123.773 787.566 123.773V127.773C789.422 127.773 791.229 127.693 792.986 127.532L792.621 123.548ZM787.566 123.773H781.003V127.773H787.566V123.773ZM767.878 123.773H761.316V127.773H767.878V123.773ZM763.316 125.773V120.403H759.316V125.773H763.316ZM763.316 109.665V104.295H759.316V109.665H763.316ZM761.316 106.295H766.486V102.295H761.316V106.295ZM776.827 106.295H781.998V102.295H776.827V106.295ZM781.998 106.295C782.786 106.295 783.554 106.264 784.3 106.202L783.964 102.216C783.337 102.269 782.682 102.295 781.998 102.295V106.295ZM788.932 105.306C789.716 105.054 790.468 104.752 791.184 104.399L789.416 100.811C788.884 101.073 788.315 101.303 787.708 101.498L788.932 105.306ZM791.195 104.394C791.831 104.076 792.436 103.723 793.009 103.335L790.766 100.023C790.345 100.309 789.892 100.573 789.406 100.816L791.195 104.394ZM796.146 100.45C796.59 99.8952 796.992 99.3061 797.351 98.6842L793.888 96.6822C793.628 97.1333 793.339 97.5558 793.023 97.9509L796.146 100.45ZM797.34 98.7043C797.725 98.055 798.059 97.3763 798.341 96.6694L794.627 95.1854C794.42 95.702 794.178 96.1939 793.9 96.6622L797.34 98.7043ZM799.395 92.3477C799.471 91.6408 799.509 90.9167 799.509 90.1761H795.509C795.509 90.7809 795.478 91.3606 795.418 91.9159L799.395 92.3477ZM799.509 90.1761C799.509 89.4389 799.472 88.7197 799.398 88.0193L795.42 88.4433C795.479 88.9938 795.509 89.5712 795.509 90.1761H799.509ZM798.348 83.7079C798.061 82.9974 797.72 82.3188 797.325 81.6736L793.915 83.7639C794.192 84.2161 794.434 84.6964 794.64 85.2062L798.348 83.7079ZM797.344 81.7059C796.983 81.0908 796.579 80.5097 796.133 79.9638L793.037 82.4969C793.35 82.8797 793.636 83.2909 793.895 83.7316L797.344 81.7059ZM792.975 77.148C792.399 76.7745 791.791 76.4378 791.153 76.137L789.447 79.7551C789.93 79.9827 790.38 80.2325 790.797 80.5035L792.975 77.148ZM791.184 76.152C790.468 75.7989 789.716 75.4971 788.932 75.245L787.708 79.0532C788.315 79.2483 788.884 79.4778 789.416 79.74L791.184 76.152ZM784.3 74.3496C783.554 74.2867 782.786 74.2557 781.998 74.2557V78.2557C782.682 78.2557 783.337 78.2826 783.964 78.3355L784.3 74.3496ZM781.998 74.2557H779.562V78.2557H781.998V74.2557ZM774.689 74.2557H772.253V78.2557H774.689V74.2557ZM770.253 76.2557V86.2237H774.253V76.2557H770.253ZM770.253 106.16V126.096H774.253V106.16H770.253ZM770.253 146.032V156H774.253V146.032H770.253ZM772.253 154H765.343V158H772.253V154ZM751.522 154H744.611V158H751.522V154ZM744.611 156H740.611V160H744.611V156ZM744.611 54.1818V50.1818H740.611V54.1818H744.611ZM808.397 58.6562L806.534 62.1959L806.534 62.1959L808.397 58.6562ZM821.621 71.2344L825.077 69.2202L825.077 69.2202L821.621 71.2344ZM821.472 109.118L818.055 107.038L818.051 107.046L818.046 107.054L821.472 109.118ZM807.9 121.447L806.127 117.862L806.119 117.866L807.9 121.447ZM761.316 125.773H757.316V129.773H761.316V125.773ZM761.316 104.295V100.295H757.316V104.295H761.316ZM790.3 102.605L792.068 106.193L792.079 106.188L792.089 106.183L790.3 102.605ZM795.62 97.6832L792.18 95.6411L792.169 95.6611L792.157 95.6812L795.62 97.6832ZM795.62 82.7188L792.171 84.7444L792.19 84.7769L792.209 84.809L795.62 82.7188ZM790.3 77.946L788.532 81.5341L788.563 81.5494L788.595 81.5641L790.3 77.946ZM772.253 76.2557V72.2557H768.253V76.2557H772.253ZM772.253 156V160H776.253V156H772.253ZM748.611 147.515V143.515H740.611V147.515H748.611ZM740.611 130.545V134.545H748.611V130.545H740.611ZM748.611 113.576V109.576H740.611V113.576H748.611ZM740.611 96.6061V100.606H748.611V96.6061H740.611ZM748.611 79.6364V75.6364H740.611V79.6364H748.611ZM740.611 62.6667V66.6667H748.611V62.6667H740.611ZM755.599 58.1818H759.599V50.1818H755.599V58.1818ZM777.573 50.1818H773.573V58.1818H777.573V50.1818ZM793.299 58.4057L797.28 58.7944L798.057 50.8323L794.076 50.4436L793.299 58.4057ZM805.037 52.8319L801.268 51.4917L798.588 59.0293L802.357 60.3695L805.037 52.8319ZM810.027 64.3329L813.291 66.6446L817.915 60.1159L814.65 57.8042L810.027 64.3329ZM822.168 64.9371L819.694 61.7944L813.408 66.7436L815.883 69.8863L822.168 64.9371ZM820.054 77.1432L821.523 80.8635L828.964 77.9246L827.494 74.2043L820.054 77.1432ZM830.061 84.8145L829.63 80.8378L821.677 81.7012L822.108 85.6778L830.061 84.8145ZM822.103 94.6787L821.663 98.6544L829.614 99.5358L830.055 95.5601L822.103 94.6787ZM827.402 106.215L828.916 102.513L821.512 99.4842L819.997 103.186L827.402 106.215ZM815.704 110.376L813.166 113.468L819.349 118.544L821.887 115.452L815.704 110.376ZM814.149 122.449L817.473 120.224L813.021 113.577L809.698 115.802L814.149 122.449ZM801.787 119.652L797.993 120.921L800.532 128.508L804.325 127.238L801.787 119.652ZM793.168 129.523L797.152 129.159L796.422 121.192L792.439 121.557L793.168 129.523ZM781.003 121.773H777.003V129.773H781.003V121.773ZM767.878 129.773H771.878V121.773H767.878V129.773ZM765.316 120.403V116.403H757.316V120.403H765.316ZM757.316 109.665V113.665H765.316V109.665H757.316ZM766.486 108.295H770.486V100.295H766.486V108.295ZM776.827 100.295H772.827V108.295H776.827V100.295ZM784.468 108.194L788.454 107.858L787.782 99.8868L783.796 100.223L784.468 108.194ZM787.096 99.5939L783.288 100.818L785.735 108.434L789.544 107.21L787.096 99.5939ZM794.131 104.991L797.442 102.748L792.956 96.1243L789.644 98.3676L794.131 104.991ZM791.461 96.7012L788.962 99.8243L795.208 104.823L797.708 101.7L791.461 96.7012ZM800.199 97.4114L801.683 93.6968L794.254 90.7289L792.77 94.4434L800.199 97.4114ZM793.43 91.7L792.998 95.6766L800.951 96.5402L801.383 92.5636L793.43 91.7ZM801.387 87.8073L800.962 83.8298L793.008 84.6778L793.432 88.6553L801.387 87.8073ZM792.785 85.9554L794.284 89.6642L801.701 86.6675L800.203 82.9587L792.785 85.9554ZM797.681 78.6973L795.148 75.6015L788.956 80.6677L791.489 83.7634L797.681 78.6973ZM789.709 82.1813L793.064 84.3586L797.419 77.6475L794.063 75.4703L789.709 82.1813ZM789.544 73.3409L785.735 72.1171L783.288 79.7335L787.096 80.9573L789.544 73.3409ZM783.796 80.3284L787.782 80.6644L788.454 72.6926L784.468 72.3567L783.796 80.3284ZM779.562 72.2557H775.562V80.2557H779.562V72.2557ZM774.689 80.2557H778.689V72.2557H774.689V80.2557ZM768.253 86.2237V90.2237H776.253V86.2237H768.253ZM776.253 106.16V102.16H768.253V106.16H776.253ZM768.253 126.096V130.096H776.253V126.096H768.253ZM776.253 146.032V142.032H768.253V146.032H776.253ZM765.343 152H761.343V160H765.343V152ZM751.522 160H755.522V152H751.522V160ZM748.611 156V147.515H740.611V156H748.611ZM748.611 130.545V113.576H740.611V130.545H748.611ZM748.611 96.6061V79.6364H740.611V96.6061H748.611ZM748.611 62.6667V54.1818H740.611V62.6667H748.611ZM744.611 58.1818H755.599V50.1818H744.611V58.1818ZM777.573 58.1818H788.56V50.1818H777.573V58.1818ZM788.56 58.1818C790.198 58.1818 791.777 58.2571 793.299 58.4057L794.076 50.4436C792.282 50.2684 790.443 50.1818 788.56 50.1818V58.1818ZM802.357 60.3695C803.814 60.8877 805.206 61.4969 806.534 62.1959L810.26 55.1166C808.587 54.2362 806.845 53.475 805.037 52.8319L802.357 60.3695ZM806.534 62.1959C807.773 62.8483 808.937 63.5611 810.027 64.3329L814.65 57.8042C813.264 56.8224 811.799 55.9269 810.26 55.1166L806.534 62.1959ZM815.883 69.8863C816.709 70.9355 817.47 72.0555 818.165 73.2485L825.077 69.2202C824.199 67.7137 823.23 66.2853 822.168 64.9371L815.883 69.8863ZM818.165 73.2485C818.888 74.4891 819.518 75.7866 820.054 77.1432L827.494 74.2043C826.812 72.4759 826.006 70.8138 825.077 69.2202L818.165 73.2485ZM822.108 85.6778C822.265 87.1199 822.344 88.6189 822.344 90.1761H830.344C830.344 88.3466 830.251 86.5589 830.061 84.8145L822.108 85.6778ZM822.344 90.1761C822.344 91.7386 822.263 93.239 822.103 94.6787L830.055 95.5601C830.249 93.8108 830.344 92.0156 830.344 90.1761H822.344ZM819.997 103.186C819.446 104.533 818.799 105.816 818.055 107.038L824.889 111.198C825.855 109.61 826.693 107.949 827.402 106.215L819.997 103.186ZM818.046 107.054C817.335 108.234 816.554 109.341 815.704 110.376L821.887 115.452C822.988 114.112 823.991 112.688 824.898 111.182L818.046 107.054ZM809.698 115.802C808.585 116.548 807.396 117.235 806.127 117.862L809.672 125.033C811.241 124.258 812.735 123.397 814.149 122.449L809.698 115.802ZM806.119 117.866C804.744 118.549 803.3 119.145 801.787 119.652L804.325 127.238C806.179 126.618 807.965 125.882 809.68 125.029L806.119 117.866ZM792.439 121.557C790.873 121.7 789.249 121.773 787.566 121.773V129.773C789.479 129.773 791.347 129.69 793.168 129.523L792.439 121.557ZM787.566 121.773H781.003V129.773H787.566V121.773ZM767.878 121.773H761.316V129.773H767.878V121.773ZM765.316 125.773V120.403H757.316V125.773H765.316ZM765.316 109.665V104.295H757.316V109.665H765.316ZM761.316 108.295H766.486V100.295H761.316V108.295ZM776.827 108.295H781.998V100.295H776.827V108.295ZM781.998 108.295C782.839 108.295 783.662 108.262 784.468 108.194L783.796 100.223C783.229 100.271 782.629 100.295 781.998 100.295V108.295ZM789.544 107.21C790.417 106.93 791.26 106.592 792.068 106.193L788.532 99.0171C788.092 99.2339 787.615 99.4272 787.096 99.5939L789.544 107.21ZM792.089 106.183C792.8 105.827 793.482 105.431 794.131 104.991L789.644 98.3676C789.299 98.6015 788.922 98.822 788.511 99.0274L792.089 106.183ZM797.708 101.7C798.216 101.065 798.674 100.393 799.083 99.6852L792.157 95.6812C791.946 96.0469 791.714 96.3861 791.461 96.7012L797.708 101.7ZM799.059 99.7254C799.499 98.9855 799.878 98.2134 800.199 97.4114L792.77 94.4434C792.601 94.8648 792.405 95.2633 792.18 95.6411L799.059 99.7254ZM801.383 92.5636C801.468 91.7809 801.509 90.9845 801.509 90.1761H793.509C793.509 90.713 793.482 91.2205 793.43 91.7L801.383 92.5636ZM801.509 90.1761C801.509 89.3727 801.469 88.5826 801.387 87.8073L793.432 88.6553C793.482 89.1309 793.509 89.6373 793.509 90.1761H801.509ZM800.203 82.9587C799.875 82.1479 799.485 81.3701 799.03 80.6285L792.209 84.809C792.428 85.1648 792.62 85.5459 792.785 85.9554L800.203 82.9587ZM799.069 80.6931C798.657 79.9908 798.194 79.3246 797.681 78.6973L791.489 83.7634C791.736 84.0648 791.963 84.3909 792.171 84.7444L799.069 80.6931ZM794.063 75.4703C793.409 75.0455 792.722 74.6654 792.006 74.3279L788.595 81.5641C789 81.7551 789.37 81.9615 789.709 82.1813L794.063 75.4703ZM792.068 74.358C791.26 73.9595 790.417 73.6215 789.544 73.3409L787.096 80.9573C787.615 81.124 788.092 81.3173 788.532 81.5341L792.068 74.358ZM784.468 72.3567C783.662 72.2887 782.839 72.2557 781.998 72.2557V80.2557C782.629 80.2557 783.229 80.2805 783.796 80.3284L784.468 72.3567ZM781.998 72.2557H779.562V80.2557H781.998V72.2557ZM774.689 72.2557H772.253V80.2557H774.689V72.2557ZM768.253 76.2557V86.2237H776.253V76.2557H768.253ZM768.253 106.16V126.096H776.253V106.16H768.253ZM768.253 146.032V156H776.253V146.032H768.253ZM772.253 152H765.343V160H772.253V152ZM751.522 152H744.611V160H751.522V152ZM832.31 54.1818V52.1818H828.97L830.547 55.1261L832.31 54.1818ZM863.134 54.1818L864.937 53.3152L864.392 52.1818H863.134V54.1818ZM883.02 95.5455L881.218 96.412L881.763 97.5455H883.02V95.5455ZM883.816 95.5455V97.5455H885.073L885.618 96.412L883.816 95.5455ZM903.702 54.1818V52.1818H902.445L901.9 53.3152L903.702 54.1818ZM934.526 54.1818L936.289 55.1261L937.866 52.1818H934.526V54.1818ZM897.14 123.983L895.377 123.039L895.14 123.481V123.983H897.14ZM897.14 156V158H899.14V156H897.14ZM869.697 156H867.697V158H869.697V156ZM869.697 123.983H871.697V123.481L871.46 123.039L869.697 123.983ZM840.016 56.1818H842.016V52.1818H840.016V56.1818ZM855.428 52.1818H853.428V56.1818H855.428V52.1818ZM866.303 65.3893L867.17 67.1918L870.775 65.4586L869.908 63.6561L866.303 65.3893ZM879.851 84.338L878.985 82.5355L875.38 84.2686L876.246 86.0711L879.851 84.338ZM883.219 97.5455H885.219V93.5455H883.219V97.5455ZM883.617 93.5455H881.617V97.5455H883.617V93.5455ZM890.59 86.0711L891.457 84.2686L887.852 82.5355L886.985 84.338L890.59 86.0711ZM896.928 63.6561L896.062 65.4586L899.667 67.1918L900.533 65.3893L896.928 63.6561ZM911.408 56.1818H913.408V52.1818H911.408V56.1818ZM926.82 52.1818H924.82V56.1818H926.82V52.1818ZM928.09 61.9627L927.145 63.7257L930.672 65.6143L931.616 63.8513L928.09 61.9627ZM922.269 81.3015L923.214 79.5385L919.687 77.6499L918.743 79.4129L922.269 81.3015ZM909.397 96.8632L908.452 98.6263L911.978 100.515L912.923 98.7518L909.397 96.8632ZM903.576 116.202L904.52 114.439L900.994 112.55L900.05 114.314L903.576 116.202ZM895.14 131.987V133.987H899.14V131.987H895.14ZM899.14 147.996V145.996H895.14V147.996H899.14ZM890.279 154H888.279V158H890.279V154ZM876.557 158H878.557V154H876.557V158ZM871.697 147.996V145.996H867.697V147.996H871.697ZM867.697 131.987V133.987H871.697V131.987H867.697ZM866.786 114.314L865.842 112.55L862.316 114.439L863.26 116.202L866.786 114.314ZM853.914 98.7518L854.858 100.515L858.384 98.6263L857.44 96.8632L853.914 98.7518ZM848.093 79.4129L847.149 77.6499L843.623 79.5385L844.567 81.3015L848.093 79.4129ZM835.22 63.8513L836.165 65.6143L839.691 63.7257L838.747 61.9626L835.22 63.8513ZM832.31 56.1818H840.016V52.1818H832.31V56.1818ZM855.428 56.1818H863.134V52.1818H855.428V56.1818ZM861.332 55.0484L866.303 65.3893L869.908 63.6561L864.937 53.3152L861.332 55.0484ZM876.246 86.0711L881.218 96.412L884.823 94.6789L879.851 84.338L876.246 86.0711ZM883.02 97.5455H883.219V93.5455H883.02V97.5455ZM883.617 97.5455H883.816V93.5455H883.617V97.5455ZM885.618 96.412L890.59 86.0711L886.985 84.338L882.013 94.6789L885.618 96.412ZM900.533 65.3893L905.505 55.0484L901.9 53.3152L896.928 63.6561L900.533 65.3893ZM903.702 56.1818H911.408V52.1818H903.702V56.1818ZM926.82 56.1818H934.526V52.1818H926.82V56.1818ZM932.763 53.2375L928.09 61.9627L931.616 63.8513L936.289 55.1261L932.763 53.2375ZM918.743 79.4129L909.397 96.8632L912.923 98.7518L922.269 81.3015L918.743 79.4129ZM900.05 114.314L895.377 123.039L898.903 124.927L903.576 116.202L900.05 114.314ZM895.14 123.983V131.987H899.14V123.983H895.14ZM895.14 147.996V156H899.14V147.996H895.14ZM897.14 154H890.279V158H897.14V154ZM876.557 154H869.697V158H876.557V154ZM871.697 156V147.996H867.697V156H871.697ZM871.697 131.987V123.983H867.697V131.987H871.697ZM871.46 123.039L866.786 114.314L863.26 116.202L867.934 124.927L871.46 123.039ZM857.44 96.8632L848.093 79.4129L844.567 81.3015L853.914 98.7518L857.44 96.8632ZM838.747 61.9626L834.073 53.2375L830.547 55.1261L835.22 63.8513L838.747 61.9626ZM832.31 54.1818V50.1818H825.63L828.784 56.0704L832.31 54.1818ZM863.134 54.1818L866.739 52.4486L865.649 50.1818H863.134V54.1818ZM883.02 95.5455L879.415 97.2786L880.505 99.5455H883.02V95.5455ZM883.816 95.5455V99.5455H886.331L887.421 97.2786L883.816 95.5455ZM903.702 54.1818V50.1818H901.187L900.097 52.4486L903.702 54.1818ZM934.526 54.1818L938.052 56.0704L941.206 50.1818H934.526V54.1818ZM897.14 123.983L893.614 122.094L893.14 122.979V123.983H897.14ZM897.14 156V160H901.14V156H897.14ZM869.697 156H865.697V160H869.697V156ZM869.697 123.983H873.697V122.979L873.223 122.094L869.697 123.983ZM840.016 58.1818H844.016V50.1818H840.016V58.1818ZM855.428 50.1818H851.428V58.1818H855.428V50.1818ZM864.501 66.2559L866.234 69.8609L873.444 66.3946L871.711 62.7895L864.501 66.2559ZM881.654 83.4714L879.921 79.8664L872.711 83.3327L874.444 86.9377L881.654 83.4714ZM883.219 99.5455H887.219V91.5455H883.219V99.5455ZM883.617 91.5455H879.617V99.5455H883.617V91.5455ZM892.392 86.9377L894.126 83.3327L886.916 79.8664L885.182 83.4714L892.392 86.9377ZM895.126 62.7895L893.392 66.3946L900.602 69.8609L902.336 66.2559L895.126 62.7895ZM911.408 58.1818H915.408V50.1818H911.408V58.1818ZM926.82 50.1818H922.82V58.1818H926.82V50.1818ZM926.327 61.0184L924.438 64.5444L931.49 68.3216L933.379 64.7956L926.327 61.0184ZM924.032 82.2458L925.921 78.7198L918.869 74.9426L916.98 78.4686L924.032 82.2458ZM907.634 95.9189L905.745 99.445L912.797 103.222L914.686 99.6961L907.634 95.9189ZM905.339 117.146L907.228 113.62L900.176 109.843L898.287 113.369L905.339 117.146ZM893.14 131.987V135.987H901.14V131.987H893.14ZM901.14 147.996V143.996H893.14V147.996H901.14ZM890.279 152H886.279V160H890.279V152ZM876.557 160H880.557V152H876.557V160ZM873.697 147.996V143.996H865.697V147.996H873.697ZM865.697 131.987V135.987H873.697V131.987H865.697ZM868.549 113.369L866.661 109.843L859.609 113.62L861.497 117.146L868.549 113.369ZM852.151 99.6961L854.039 103.222L861.091 99.445L859.203 95.9189L852.151 99.6961ZM849.856 78.4686L847.968 74.9426L840.915 78.7198L842.804 82.2458L849.856 78.4686ZM833.457 64.7956L835.346 68.3216L842.398 64.5444L840.51 61.0183L833.457 64.7956ZM832.31 58.1818H840.016V50.1818H832.31V58.1818ZM855.428 58.1818H863.134V50.1818H855.428V58.1818ZM859.529 55.915L864.501 66.2559L871.711 62.7895L866.739 52.4486L859.529 55.915ZM874.444 86.9377L879.415 97.2786L886.625 93.8123L881.654 83.4714L874.444 86.9377ZM883.02 99.5455H883.219V91.5455H883.02V99.5455ZM883.617 99.5455H883.816V91.5455H883.617V99.5455ZM887.421 97.2786L892.392 86.9377L885.182 83.4714L880.211 93.8123L887.421 97.2786ZM902.336 66.2559L907.307 55.915L900.097 52.4486L895.126 62.7895L902.336 66.2559ZM903.702 58.1818H911.408V50.1818H903.702V58.1818ZM926.82 58.1818H934.526V50.1818H926.82V58.1818ZM931 52.2932L926.327 61.0184L933.379 64.7956L938.052 56.0704L931 52.2932ZM916.98 78.4686L907.634 95.9189L914.686 99.6961L924.032 82.2458L916.98 78.4686ZM898.287 113.369L893.614 122.094L900.666 125.872L905.339 117.146L898.287 113.369ZM893.14 123.983V131.987H901.14V123.983H893.14ZM893.14 147.996V156H901.14V147.996H893.14ZM897.14 152H890.279V160H897.14V152ZM876.557 152H869.697V160H876.557V152ZM873.697 156V147.996H865.697V156H873.697ZM873.697 131.987V123.983H865.697V131.987H873.697ZM873.223 122.094L868.549 113.369L861.497 117.146L866.17 125.872L873.223 122.094ZM859.203 95.9189L849.856 78.4686L842.804 82.2458L852.151 99.6961L859.203 95.9189ZM840.51 61.0183L835.836 52.2932L828.784 56.0704L833.457 64.7956L840.51 61.0183Z" fill="black"/>
</g>
<defs>
<filter id="filter0_d_109_792" x="521.19" y="52.7898" width="968.376" height="113.91" filterUnits="userSpaceOnUse" color-interpolation-filters="sRGB">
<feFlood flood-opacity="0" result="BackgroundImageFix"/>
<feColorMatrix in="SourceAlpha" type="matrix" values="0 0 0 0 0 0 0 0 0 0 0 0 0 0 0 0 0 0 127 0" result="hardAlpha"/>
<feOffset dy="4"/>
<feGaussianBlur stdDeviation="2"/>
<feComposite in2="hardAlpha" operator="out"/>
<feColorMatrix type="matrix" values="0 0 0 0 0 0 0 0 0 0 0 0 0 0 0 0 0 0 0.25 0"/>
<feBlend mode="normal" in2="BackgroundImageFix" result="effect1_dropShadow_109_792"/>
<feBlend mode="normal" in="SourceGraphic" in2="effect1_dropShadow_109_792" result="shape"/>
</filter>
<filter id="filter1_d_109_792" x="970.707" y="54.3" width="518.859" height="112.4" filterUnits="userSpaceOnUse" color-interpolation-filters="sRGB">
<feFlood flood-opacity="0" result="BackgroundImageFix"/>
<feColorMatrix in="SourceAlpha" type="matrix" values="0 0 0 0 0 0 0 0 0 0 0 0 0 0 0 0 0 0 127 0" result="hardAlpha"/>
<feOffset dy="4"/>
<feGaussianBlur stdDeviation="2"/>
<feComposite in2="hardAlpha" operator="out"/>
<feColorMatrix type="matrix" values="0 0 0 0 0 0 0 0 0 0 0 0 0 0 0 0 0 0 0.25 0"/>
<feBlend mode="normal" in2="BackgroundImageFix" result="effect1_dropShadow_109_792"/>
<feBlend mode="normal" in="SourceGraphic" in2="effect1_dropShadow_109_792" result="shape"/>
</filter>
</defs>
</svg>
