{
	"asset":{
		"generator":"Khronos glTF Blender I/O v3.6.27",
		"version":"2.0"
	},
	"scene":0,
	"scenes":[
		{
			"name":"Scene",
			"nodes":[
				0
			]
		}
	],
	"nodes":[
		{
			"mesh":0,
			"name":"1"
		}
	],
	"materials":[
		{
			"doubleSided":true,
			"name":"PastryColorTexture",
			"pbrMetallicRoughness":{
				"baseColorTexture":{
					"index":0
				},
				"metallicFactor":0,
				"roughnessFactor":0.5
			}
		}
	],
	"meshes":[
		{
			"name":"Cube.026",
			"primitives":[
				{
					"attributes":{
						"POSITION":0,
						"NORMAL":1,
						"TEXCOORD_0":2
					},
					"indices":3,
					"material":0
				}
			]
		}
	],
	"textures":[
		{
			"sampler":0,
			"source":0
		}
	],
	"images":[
		{
			"mimeType":"image/png",
			"name":"pastries _pastries_1-material_BaseColor",
			"uri":"pastries%20_pastries_1-material_BaseColor.png"
		}
	],
	"accessors":[
		{
			"bufferView":0,
			"componentType":5126,
			"count":3496,
			"max":[
				1.4695953130722046,
				1.480659008026123,
				1.3599096536636353
			],
			"min":[
				-1.4278013706207275,
				-1.0501089096069336,
				-1.4502285718917847
			],
			"type":"VEC3"
		},
		{
			"bufferView":1,
			"componentType":5126,
			"count":3496,
			"type":"VEC3"
		},
		{
			"bufferView":2,
			"componentType":5126,
			"count":3496,
			"type":"VEC2"
		},
		{
			"bufferView":3,
			"componentType":5123,
			"count":18048,
			"type":"SCALAR"
		}
	],
	"bufferViews":[
		{
			"buffer":0,
			"byteLength":41952,
			"byteOffset":0,
			"target":34962
		},
		{
			"buffer":0,
			"byteLength":41952,
			"byteOffset":41952,
			"target":34962
		},
		{
			"buffer":0,
			"byteLength":27968,
			"byteOffset":83904,
			"target":34962
		},
		{
			"buffer":0,
			"byteLength":36096,
			"byteOffset":111872,
			"target":34963
		}
	],
	"samplers":[
		{
			"magFilter":9729,
			"minFilter":9987
		}
	],
	"buffers":[
		{
			"byteLength":147968,
			"uri":"pastryHero.bin"
		}
	]
}
