{
	"asset":{
		"generator":"Khronos glTF Blender I/O v3.6.27",
		"version":"2.0"
	},
	"scene":0,
	"scenes":[
		{
			"name":"Scene",
			"nodes":[
				0,
				1,
				2,
				3
			]
		}
	],
	"nodes":[
		{
			"name":"Circle",
			"translation":[
				0,
				0.18153464794158936,
				0
			]
		},
		{
			"mesh":0,
			"name":"Book_1",
			"rotation":[
				0.6827876567840576,
				0.35076168179512024,
				-0.038032229989767075,
				0.6397819519042969
			],
			"scale":[
				1,
				2.390831708908081,
				1
			],
			"translation":[
				-0.990807831287384,
				0.8946285843849182,
				0.034682899713516235
			]
		},
		{
			"mesh":1,
			"name":"Cylinder",
			"rotation":[
				-0.17513200640678406,
				-0.91832435131073,
				-0.16808675229549408,
				0.3126595914363861
			],
			"scale":[
				0.2671310305595398,
				0.059112537652254105,
				0.267130970954895
			],
			"translation":[
				0.44694268703460693,
				-0.23005050420761108,
				-0.37369707226753235
			]
		},
		{
			"mesh":2,
			"name":"Cylinder.001",
			"rotation":[
				-0.17513200640678406,
				-0.91832435131073,
				-0.16808675229549408,
				0.3126595914363861
			],
			"scale":[
				0.2730400860309601,
				0.19052858650684357,
				0.27304011583328247
			],
			"translation":[
				1.494399070739746,
				1.9351221323013306,
				0.11522971093654633
			]
		}
	],
	"materials":[
		{
			"doubleSided":true,
			"name":"book_cover_blue",
			"pbrMetallicRoughness":{
				"baseColorFactor":[
					0.20268970727920532,
					0.31901252269744873,
					0.8000000715255737,
					1
				],
				"metallicFactor":0,
				"roughnessFactor":0.4000000059604645
			}
		},
		{
			"doubleSided":true,
			"name":"book_pages",
			"pbrMetallicRoughness":{
				"metallicFactor":0,
				"roughnessFactor":0.5
			}
		},
		{
			"doubleSided":true,
			"name":"Material.001",
			"pbrMetallicRoughness":{
				"baseColorFactor":[
					0.8000000715255737,
					0.28777891397476196,
					0,
					1
				],
				"metallicFactor":0,
				"roughnessFactor":0.5
			}
		},
		{
			"doubleSided":true,
			"name":"Material.002",
			"pbrMetallicRoughness":{
				"baseColorFactor":[
					0.8000000715255737,
					0.2603718936443329,
					0.15504087507724762,
					1
				],
				"metallicFactor":0,
				"roughnessFactor":0.5
			}
		},
		{
			"doubleSided":true,
			"name":"Material.003",
			"pbrMetallicRoughness":{
				"baseColorFactor":[
					0.010272780433297157,
					0.010272780433297157,
					0.010272780433297157,
					1
				],
				"metallicFactor":0,
				"roughnessFactor":0.503636360168457
			}
		},
		{
			"doubleSided":true,
			"name":"Material.004",
			"pbrMetallicRoughness":{
				"baseColorFactor":[
					0.5287831425666809,
					0.5287831425666809,
					0.5287831425666809,
					1
				],
				"metallicFactor":0.5454545617103577,
				"roughnessFactor":0.30000001192092896
			}
		},
		{
			"doubleSided":true,
			"name":"Material.005",
			"pbrMetallicRoughness":{
				"baseColorFactor":[
					0.7123520374298096,
					0.7123520374298096,
					0.7123520374298096,
					1
				],
				"metallicFactor":0,
				"roughnessFactor":0.5
			}
		},
		{
			"doubleSided":true,
			"name":"Material.006",
			"pbrMetallicRoughness":{
				"baseColorFactor":[
					0.14915277063846588,
					0.14915277063846588,
					0.14915277063846588,
					1
				],
				"metallicFactor":0.27272728085517883,
				"roughnessFactor":0.5
			}
		}
	],
	"meshes":[
		{
			"name":"Cube.002",
			"primitives":[
				{
					"attributes":{
						"POSITION":0,
						"NORMAL":1,
						"TEXCOORD_0":2
					},
					"indices":3,
					"material":0
				},
				{
					"attributes":{
						"POSITION":4,
						"NORMAL":5,
						"TEXCOORD_0":6
					},
					"indices":7,
					"material":1
				}
			]
		},
		{
			"name":"Cylinder.001",
			"primitives":[
				{
					"attributes":{
						"POSITION":8,
						"NORMAL":9,
						"TEXCOORD_0":10
					},
					"indices":11,
					"material":2
				},
				{
					"attributes":{
						"POSITION":12,
						"NORMAL":13,
						"TEXCOORD_0":14
					},
					"indices":15,
					"material":3
				},
				{
					"attributes":{
						"POSITION":16,
						"NORMAL":17,
						"TEXCOORD_0":18
					},
					"indices":19,
					"material":4
				}
			]
		},
		{
			"name":"Cylinder.002",
			"primitives":[
				{
					"attributes":{
						"POSITION":20,
						"NORMAL":21,
						"TEXCOORD_0":22
					},
					"indices":23,
					"material":5
				},
				{
					"attributes":{
						"POSITION":24,
						"NORMAL":25,
						"TEXCOORD_0":26
					},
					"indices":27,
					"material":6
				},
				{
					"attributes":{
						"POSITION":28,
						"NORMAL":29,
						"TEXCOORD_0":30
					},
					"indices":31,
					"material":7
				}
			]
		}
	],
	"accessors":[
		{
			"bufferView":0,
			"componentType":5126,
			"count":465,
			"max":[
				0.8659166097640991,
				0.19832342863082886,
				1.1739274263381958
			],
			"min":[
				-0.9362636208534241,
				-0.19832342863082886,
				-1.1739274263381958
			],
			"type":"VEC3"
		},
		{
			"bufferView":1,
			"componentType":5126,
			"count":465,
			"type":"VEC3"
		},
		{
			"bufferView":2,
			"componentType":5126,
			"count":465,
			"type":"VEC2"
		},
		{
			"bufferView":3,
			"componentType":5123,
			"count":819,
			"type":"SCALAR"
		},
		{
			"bufferView":4,
			"componentType":5126,
			"count":145,
			"max":[
				0.7860078811645508,
				0.15499873459339142,
				1.1033999919891357
			],
			"min":[
				-0.8721900582313538,
				-0.15499873459339142,
				-1.105111837387085
			],
			"type":"VEC3"
		},
		{
			"bufferView":5,
			"componentType":5126,
			"count":145,
			"type":"VEC3"
		},
		{
			"bufferView":6,
			"componentType":5126,
			"count":145,
			"type":"VEC2"
		},
		{
			"bufferView":7,
			"componentType":5123,
			"count":255,
			"type":"SCALAR"
		},
		{
			"bufferView":8,
			"componentType":5126,
			"count":30,
			"max":[
				0.8660330176353455,
				39.83431625366211,
				1.0000051259994507
			],
			"min":[
				-0.866025447845459,
				-1,
				-1
			],
			"type":"VEC3"
		},
		{
			"bufferView":9,
			"componentType":5126,
			"count":30,
			"type":"VEC3"
		},
		{
			"bufferView":10,
			"componentType":5126,
			"count":30,
			"type":"VEC2"
		},
		{
			"bufferView":11,
			"componentType":5123,
			"count":48,
			"type":"SCALAR"
		},
		{
			"bufferView":12,
			"componentType":5126,
			"count":48,
			"max":[
				0.866025447845459,
				-1,
				1
			],
			"min":[
				-0.866025447845459,
				-3.5845367908477783,
				-1
			],
			"type":"VEC3"
		},
		{
			"bufferView":13,
			"componentType":5126,
			"count":48,
			"type":"VEC3"
		},
		{
			"bufferView":14,
			"componentType":5126,
			"count":48,
			"type":"VEC2"
		},
		{
			"bufferView":15,
			"componentType":5123,
			"count":72,
			"type":"SCALAR"
		},
		{
			"bufferView":16,
			"componentType":5126,
			"count":30,
			"max":[
				0.22398483753204346,
				-3.5845367908477783,
				0.25863534212112427
			],
			"min":[
				-0.2239847332239151,
				-4.499588966369629,
				-0.25863534212112427
			],
			"type":"VEC3"
		},
		{
			"bufferView":17,
			"componentType":5126,
			"count":30,
			"type":"VEC3"
		},
		{
			"bufferView":18,
			"componentType":5126,
			"count":30,
			"type":"VEC2"
		},
		{
			"bufferView":19,
			"componentType":5123,
			"count":48,
			"type":"SCALAR"
		},
		{
			"bufferView":20,
			"componentType":5126,
			"count":560,
			"max":[
				0.9848082065582275,
				1.000000238418579,
				1.000000238418579
			],
			"min":[
				-0.9848082065582275,
				-1,
				-1.000000238418579
			],
			"type":"VEC3"
		},
		{
			"bufferView":21,
			"componentType":5126,
			"count":560,
			"type":"VEC3"
		},
		{
			"bufferView":22,
			"componentType":5126,
			"count":560,
			"type":"VEC2"
		},
		{
			"bufferView":23,
			"componentType":5123,
			"count":1824,
			"type":"SCALAR"
		},
		{
			"bufferView":24,
			"componentType":5126,
			"count":124,
			"max":[
				0.9175865650177002,
				1.7299474477767944,
				0.9317417144775391
			],
			"min":[
				-0.9175865650177002,
				1.000000238418579,
				-0.9317417144775391
			],
			"type":"VEC3"
		},
		{
			"bufferView":25,
			"componentType":5126,
			"count":124,
			"type":"VEC3"
		},
		{
			"bufferView":26,
			"componentType":5126,
			"count":124,
			"type":"VEC2"
		},
		{
			"bufferView":27,
			"componentType":5123,
			"count":654,
			"type":"SCALAR"
		},
		{
			"bufferView":28,
			"componentType":5126,
			"count":80,
			"max":[
				0.9343066215515137,
				0.7994306087493896,
				0.9487196207046509
			],
			"min":[
				-0.9343066215515137,
				-0.7929667830467224,
				-0.9487196207046509
			],
			"type":"VEC3"
		},
		{
			"bufferView":29,
			"componentType":5126,
			"count":80,
			"type":"VEC3"
		},
		{
			"bufferView":30,
			"componentType":5126,
			"count":80,
			"type":"VEC2"
		},
		{
			"bufferView":31,
			"componentType":5123,
			"count":240,
			"type":"SCALAR"
		}
	],
	"bufferViews":[
		{
			"buffer":0,
			"byteLength":5580,
			"byteOffset":0,
			"target":34962
		},
		{
			"buffer":0,
			"byteLength":5580,
			"byteOffset":5580,
			"target":34962
		},
		{
			"buffer":0,
			"byteLength":3720,
			"byteOffset":11160,
			"target":34962
		},
		{
			"buffer":0,
			"byteLength":1638,
			"byteOffset":14880,
			"target":34963
		},
		{
			"buffer":0,
			"byteLength":1740,
			"byteOffset":16520,
			"target":34962
		},
		{
			"buffer":0,
			"byteLength":1740,
			"byteOffset":18260,
			"target":34962
		},
		{
			"buffer":0,
			"byteLength":1160,
			"byteOffset":20000,
			"target":34962
		},
		{
			"buffer":0,
			"byteLength":510,
			"byteOffset":21160,
			"target":34963
		},
		{
			"buffer":0,
			"byteLength":360,
			"byteOffset":21672,
			"target":34962
		},
		{
			"buffer":0,
			"byteLength":360,
			"byteOffset":22032,
			"target":34962
		},
		{
			"buffer":0,
			"byteLength":240,
			"byteOffset":22392,
			"target":34962
		},
		{
			"buffer":0,
			"byteLength":96,
			"byteOffset":22632,
			"target":34963
		},
		{
			"buffer":0,
			"byteLength":576,
			"byteOffset":22728,
			"target":34962
		},
		{
			"buffer":0,
			"byteLength":576,
			"byteOffset":23304,
			"target":34962
		},
		{
			"buffer":0,
			"byteLength":384,
			"byteOffset":23880,
			"target":34962
		},
		{
			"buffer":0,
			"byteLength":144,
			"byteOffset":24264,
			"target":34963
		},
		{
			"buffer":0,
			"byteLength":360,
			"byteOffset":24408,
			"target":34962
		},
		{
			"buffer":0,
			"byteLength":360,
			"byteOffset":24768,
			"target":34962
		},
		{
			"buffer":0,
			"byteLength":240,
			"byteOffset":25128,
			"target":34962
		},
		{
			"buffer":0,
			"byteLength":96,
			"byteOffset":25368,
			"target":34963
		},
		{
			"buffer":0,
			"byteLength":6720,
			"byteOffset":25464,
			"target":34962
		},
		{
			"buffer":0,
			"byteLength":6720,
			"byteOffset":32184,
			"target":34962
		},
		{
			"buffer":0,
			"byteLength":4480,
			"byteOffset":38904,
			"target":34962
		},
		{
			"buffer":0,
			"byteLength":3648,
			"byteOffset":43384,
			"target":34963
		},
		{
			"buffer":0,
			"byteLength":1488,
			"byteOffset":47032,
			"target":34962
		},
		{
			"buffer":0,
			"byteLength":1488,
			"byteOffset":48520,
			"target":34962
		},
		{
			"buffer":0,
			"byteLength":992,
			"byteOffset":50008,
			"target":34962
		},
		{
			"buffer":0,
			"byteLength":1308,
			"byteOffset":51000,
			"target":34963
		},
		{
			"buffer":0,
			"byteLength":960,
			"byteOffset":52308,
			"target":34962
		},
		{
			"buffer":0,
			"byteLength":960,
			"byteOffset":53268,
			"target":34962
		},
		{
			"buffer":0,
			"byteLength":640,
			"byteOffset":54228,
			"target":34962
		},
		{
			"buffer":0,
			"byteLength":480,
			"byteOffset":54868,
			"target":34963
		}
	],
	"buffers":[
		{
			"byteLength":55348,
			"uri":"thickpencilbook.bin"
		}
	]
}
